<svg width="250" height="48" viewBox="0 0 250 48" fill="none" xmlns="http://www.w3.org/2000/svg">
<path d="M11.5393 35.312C11.5393 36.4213 11.8806 37.2107 12.5633 37.68C13.2886 38.1493 14.2913 38.384 15.5713 38.384C16.2113 38.384 16.8726 38.3413 17.5553 38.256C18.2379 38.128 18.8353 37.9787 19.3473 37.808C19.7313 38.2773 20.0513 38.8107 20.3073 39.408C20.6059 39.9627 20.7553 40.6453 20.7553 41.456C20.7553 43.0773 20.1366 44.4 18.8993 45.424C17.7046 46.448 15.5713 46.96 12.4993 46.96C8.74459 46.96 5.84325 46.1067 3.79525 44.4C1.78992 42.6933 0.787253 39.92 0.787253 36.08V8.688C1.25659 8.56 1.91792 8.432 2.77125 8.304C3.66725 8.13333 4.60592 8.048 5.58725 8.048C7.46459 8.048 8.91525 8.38933 9.93925 9.072C11.0059 9.712 11.5393 11.0987 11.5393 13.232V17.328H19.9233C20.1793 17.7973 20.4139 18.3947 20.6273 19.12C20.8833 19.8027 21.0113 20.5707 21.0113 21.424C21.0113 22.9173 20.6699 24.0053 19.9873 24.688C19.3473 25.328 18.4726 25.648 17.3633 25.648H11.5393V35.312ZM45.5573 47.024C43.0399 47.024 40.6933 46.6827 38.5173 46C36.3839 45.2747 34.5066 44.208 32.8853 42.8C31.3066 41.392 30.0479 39.6213 29.1093 37.488C28.2133 35.3547 27.7653 32.8587 27.7653 30C27.7653 27.184 28.2133 24.7733 29.1093 22.768C30.0479 20.72 31.2639 19.056 32.7573 17.776C34.2506 16.4533 35.9573 15.4933 37.8773 14.896C39.7973 14.256 41.7599 13.936 43.7653 13.936C46.0266 13.936 48.0746 14.2773 49.9093 14.96C51.7866 15.6427 53.3866 16.5813 54.7093 17.776C56.0746 18.9707 57.1199 20.4 57.8453 22.064C58.6133 23.728 58.9973 25.5413 58.9973 27.504C58.9973 28.9547 58.5919 30.064 57.7813 30.832C56.9706 31.6 55.8399 32.0907 54.3893 32.304L38.5813 34.672C39.0506 36.08 40.0106 37.1467 41.4613 37.872C42.9119 38.5547 44.5759 38.896 46.4533 38.896C48.2026 38.896 49.8453 38.6827 51.3813 38.256C52.9599 37.7867 54.2399 37.2533 55.2213 36.656C55.9039 37.0827 56.4799 37.68 56.9493 38.448C57.4186 39.216 57.6533 40.0267 57.6533 40.88C57.6533 42.8 56.7573 44.2293 54.9653 45.168C53.5999 45.8933 52.0639 46.384 50.3573 46.64C48.6506 46.896 47.0506 47.024 45.5573 47.024ZM43.7653 21.872C42.7413 21.872 41.8453 22.0427 41.0773 22.384C40.3519 22.7253 39.7546 23.1733 39.2853 23.728C38.8159 24.24 38.4533 24.8373 38.1973 25.52C37.9839 26.16 37.8559 26.8213 37.8133 27.504L48.7573 25.712C48.6293 24.8587 48.1599 24.0053 47.3493 23.152C46.5386 22.2987 45.3439 21.872 43.7653 21.872ZM78.5063 45.936C78.0369 46.0213 77.3329 46.128 76.3943 46.256C75.4983 46.4267 74.5809 46.512 73.6423 46.512C72.7036 46.512 71.8503 46.448 71.0823 46.32C70.3569 46.192 69.7383 45.936 69.2263 45.552C68.7143 45.168 68.3089 44.656 68.0103 44.016C67.7543 43.3333 67.6263 42.4587 67.6263 41.392V4.272C68.0956 4.18666 68.7783 4.08 69.6743 3.952C70.6129 3.78133 71.5516 3.696 72.4903 3.696C73.4289 3.696 74.2609 3.76 74.9863 3.888C75.7543 4.016 76.3943 4.272 76.9063 4.656C77.4183 5.04 77.8023 5.57333 78.0583 6.256C78.3569 6.896 78.5063 7.74933 78.5063 8.816V45.936ZM105.02 47.024C102.502 47.024 100.156 46.6827 97.9798 46C95.8464 45.2747 93.9691 44.208 92.3478 42.8C90.7691 41.392 89.5104 39.6213 88.5718 37.488C87.6758 35.3547 87.2278 32.8587 87.2278 30C87.2278 27.184 87.6758 24.7733 88.5718 22.768C89.5104 20.72 90.7264 19.056 92.2198 17.776C93.7131 16.4533 95.4198 15.4933 97.3398 14.896C99.2598 14.256 101.222 13.936 103.228 13.936C105.489 13.936 107.537 14.2773 109.372 14.96C111.249 15.6427 112.849 16.5813 114.172 17.776C115.537 18.9707 116.582 20.4 117.308 22.064C118.076 23.728 118.46 25.5413 118.46 27.504C118.46 28.9547 118.054 30.064 117.244 30.832C116.433 31.6 115.302 32.0907 113.852 32.304L98.0438 34.672C98.5131 36.08 99.4731 37.1467 100.924 37.872C102.374 38.5547 104.038 38.896 105.916 38.896C107.665 38.896 109.308 38.6827 110.844 38.256C112.422 37.7867 113.702 37.2533 114.684 36.656C115.366 37.0827 115.942 37.68 116.412 38.448C116.881 39.216 117.116 40.0267 117.116 40.88C117.116 42.8 116.22 44.2293 114.428 45.168C113.062 45.8933 111.526 46.384 109.82 46.64C108.113 46.896 106.513 47.024 105.02 47.024ZM103.228 21.872C102.204 21.872 101.308 22.0427 100.54 22.384C99.8144 22.7253 99.2171 23.1733 98.7478 23.728C98.2784 24.24 97.9158 24.8373 97.6598 25.52C97.4464 26.16 97.3184 26.8213 97.2758 27.504L108.22 25.712C108.092 24.8587 107.622 24.0053 106.812 23.152C106.001 22.2987 104.806 21.872 103.228 21.872ZM146.609 26.288C146.609 24.9653 146.225 24.0053 145.457 23.408C144.731 22.768 143.729 22.448 142.449 22.448C141.595 22.448 140.742 22.5547 139.889 22.768C139.078 22.9813 138.374 23.3013 137.777 23.728V45.936C137.35 46.064 136.667 46.192 135.729 46.32C134.833 46.448 133.894 46.512 132.913 46.512C131.974 46.512 131.121 46.448 130.353 46.32C129.627 46.192 129.009 45.936 128.497 45.552C127.985 45.168 127.579 44.656 127.281 44.016C127.025 43.3333 126.897 42.4587 126.897 41.392V22.192C126.897 21.04 127.131 20.1013 127.601 19.376C128.113 18.6507 128.795 17.9893 129.649 17.392C131.099 16.368 132.913 15.536 135.089 14.896C137.307 14.256 139.761 13.936 142.449 13.936C147.27 13.936 150.982 15.0027 153.585 17.136C156.187 19.2267 157.489 22.1493 157.489 25.904V45.936C157.062 46.064 156.379 46.192 155.441 46.32C154.545 46.448 153.606 46.512 152.625 46.512C151.686 46.512 150.833 46.448 150.065 46.32C149.339 46.192 148.721 45.936 148.209 45.552C147.697 45.168 147.291 44.656 146.993 44.016C146.737 43.3333 146.609 42.4587 146.609 41.392V26.288ZM178.289 35.312C178.289 36.4213 178.631 37.2107 179.313 37.68C180.039 38.1493 181.041 38.384 182.321 38.384C182.961 38.384 183.623 38.3413 184.305 38.256C184.988 38.128 185.585 37.9787 186.097 37.808C186.481 38.2773 186.801 38.8107 187.057 39.408C187.356 39.9627 187.505 40.6453 187.505 41.456C187.505 43.0773 186.887 44.4 185.649 45.424C184.455 46.448 182.321 46.96 179.249 46.96C175.495 46.96 172.593 46.1067 170.545 44.4C168.54 42.6933 167.537 39.92 167.537 36.08V8.688C168.007 8.56 168.668 8.432 169.521 8.304C170.417 8.13333 171.356 8.048 172.337 8.048C174.215 8.048 175.665 8.38933 176.689 9.072C177.756 9.712 178.289 11.0987 178.289 13.232V17.328H186.673C186.929 17.7973 187.164 18.3947 187.377 19.12C187.633 19.8027 187.761 20.5707 187.761 21.424C187.761 22.9173 187.42 24.0053 186.737 24.688C186.097 25.328 185.223 25.648 184.113 25.648H178.289V35.312ZM195.978 6.256C195.978 4.63466 196.512 3.26933 197.578 2.16C198.688 1.05066 200.138 0.495998 201.93 0.495998C203.722 0.495998 205.152 1.05066 206.218 2.16C207.328 3.26933 207.882 4.63466 207.882 6.256C207.882 7.87733 207.328 9.24267 206.218 10.352C205.152 11.4613 203.722 12.016 201.93 12.016C200.138 12.016 198.688 11.4613 197.578 10.352C196.512 9.24267 195.978 7.87733 195.978 6.256ZM207.37 45.936C206.901 46.0213 206.197 46.128 205.258 46.256C204.362 46.4267 203.445 46.512 202.506 46.512C201.568 46.512 200.714 46.448 199.946 46.32C199.221 46.192 198.602 45.936 198.09 45.552C197.578 45.168 197.173 44.656 196.874 44.016C196.618 43.3333 196.49 42.4587 196.49 41.392V15.344C196.96 15.2587 197.642 15.152 198.538 15.024C199.477 14.8533 200.416 14.768 201.354 14.768C202.293 14.768 203.125 14.832 203.85 14.96C204.618 15.088 205.258 15.344 205.77 15.728C206.282 16.112 206.666 16.6453 206.922 17.328C207.221 17.968 207.37 18.8213 207.37 19.888V45.936ZM249.689 30.448C249.689 33.0933 249.283 35.4613 248.473 37.552C247.662 39.6 246.51 41.328 245.017 42.736C243.566 44.144 241.817 45.2107 239.769 45.936C237.721 46.6613 235.438 47.024 232.921 47.024C230.403 47.024 228.121 46.64 226.073 45.872C224.025 45.104 222.254 44.016 220.761 42.608C219.31 41.1573 218.179 39.408 217.369 37.36C216.558 35.312 216.153 33.008 216.153 30.448C216.153 27.9307 216.558 25.648 217.369 23.6C218.179 21.552 219.31 19.824 220.761 18.416C222.254 16.9653 224.025 15.856 226.073 15.088C228.121 14.32 230.403 13.936 232.921 13.936C235.438 13.936 237.721 14.3413 239.769 15.152C241.817 15.92 243.566 17.0293 245.017 18.48C246.51 19.888 247.662 21.616 248.473 23.664C249.283 25.712 249.689 27.9733 249.689 30.448ZM227.289 30.448C227.289 33.0507 227.779 35.056 228.761 36.464C229.785 37.8293 231.193 38.512 232.985 38.512C234.777 38.512 236.142 37.808 237.081 36.4C238.062 34.992 238.553 33.008 238.553 30.448C238.553 27.888 238.062 25.9253 237.081 24.56C236.099 23.152 234.713 22.448 232.921 22.448C231.129 22.448 229.742 23.152 228.761 24.56C227.779 25.9253 227.289 27.888 227.289 30.448Z" fill="url(#paint0_linear_37_251)"/>
<defs>
<linearGradient id="paint0_linear_37_251" x1="-10" y1="29.5" x2="259" y2="29.5" gradientUnits="userSpaceOnUse">
<stop stop-color="#4E54C8"/>
<stop offset="1" stop-color="#8F94FB"/>
</linearGradient>
</defs>
</svg>
