<svg width="126" height="24" viewBox="0 0 126 24" fill="none" xmlns="http://www.w3.org/2000/svg">
<path d="M6.104 17.656C6.104 18.2107 6.27467 18.6053 6.616 18.84C6.97867 19.0747 7.48 19.192 8.12 19.192C8.44 19.192 8.77067 19.1707 9.112 19.128C9.45333 19.064 9.752 18.9893 10.008 18.904C10.2 19.1387 10.36 19.4053 10.488 19.704C10.6373 19.9813 10.712 20.3227 10.712 20.728C10.712 21.5387 10.4027 22.2 9.784 22.712C9.18667 23.224 8.12 23.48 6.584 23.48C4.70667 23.48 3.256 23.0533 2.232 22.2C1.22933 21.3467 0.728 19.96 0.728 18.04V4.344C0.962667 4.28 1.29333 4.216 1.72 4.152C2.168 4.06667 2.63733 4.024 3.128 4.024C4.06667 4.024 4.792 4.19467 5.304 4.536C5.83733 4.856 6.104 5.54933 6.104 6.616V8.664H10.296C10.424 8.89867 10.5413 9.19733 10.648 9.56C10.776 9.90133 10.84 10.2853 10.84 10.712C10.84 11.4587 10.6693 12.0027 10.328 12.344C10.008 12.664 9.57067 12.824 9.016 12.824H6.104V17.656ZM23.113 23.512C21.8543 23.512 20.681 23.3413 19.593 23C18.5263 22.6373 17.5877 22.104 16.777 21.4C15.9877 20.696 15.3583 19.8107 14.889 18.744C14.441 17.6773 14.217 16.4293 14.217 15C14.217 13.592 14.441 12.3867 14.889 11.384C15.3583 10.36 15.9663 9.528 16.713 8.888C17.4597 8.22667 18.313 7.74667 19.273 7.448C20.233 7.128 21.2143 6.968 22.217 6.968C23.3477 6.968 24.3717 7.13867 25.289 7.48C26.2277 7.82133 27.0277 8.29067 27.689 8.888C28.3717 9.48533 28.8943 10.2 29.257 11.032C29.641 11.864 29.833 12.7707 29.833 13.752C29.833 14.4773 29.6303 15.032 29.225 15.416C28.8197 15.8 28.2543 16.0453 27.529 16.152L19.625 17.336C19.8597 18.04 20.3397 18.5733 21.065 18.936C21.7903 19.2773 22.6223 19.448 23.561 19.448C24.4357 19.448 25.257 19.3413 26.025 19.128C26.8143 18.8933 27.4543 18.6267 27.945 18.328C28.2863 18.5413 28.5743 18.84 28.809 19.224C29.0437 19.608 29.161 20.0133 29.161 20.44C29.161 21.4 28.713 22.1147 27.817 22.584C27.1343 22.9467 26.3663 23.192 25.513 23.32C24.6597 23.448 23.8597 23.512 23.113 23.512ZM22.217 10.936C21.705 10.936 21.257 11.0213 20.873 11.192C20.5103 11.3627 20.2117 11.5867 19.977 11.864C19.7423 12.12 19.561 12.4187 19.433 12.76C19.3263 13.08 19.2623 13.4107 19.241 13.752L24.713 12.856C24.649 12.4293 24.4143 12.0027 24.009 11.576C23.6037 11.1493 23.0063 10.936 22.217 10.936ZM39.5875 22.968C39.3528 23.0107 39.0008 23.064 38.5315 23.128C38.0835 23.2133 37.6248 23.256 37.1555 23.256C36.6862 23.256 36.2595 23.224 35.8755 23.16C35.5128 23.096 35.2035 22.968 34.9475 22.776C34.6915 22.584 34.4888 22.328 34.3395 22.008C34.2115 21.6667 34.1475 21.2293 34.1475 20.696V2.136C34.3822 2.09333 34.7235 2.04 35.1715 1.976C35.6408 1.89067 36.1102 1.848 36.5795 1.848C37.0488 1.848 37.4648 1.88 37.8275 1.944C38.2115 2.008 38.5315 2.136 38.7875 2.328C39.0435 2.52 39.2355 2.78667 39.3635 3.128C39.5128 3.448 39.5875 3.87467 39.5875 4.408V22.968ZM52.8442 23.512C51.5856 23.512 50.4122 23.3413 49.3242 23C48.2576 22.6373 47.3189 22.104 46.5082 21.4C45.7189 20.696 45.0896 19.8107 44.6202 18.744C44.1722 17.6773 43.9482 16.4293 43.9482 15C43.9482 13.592 44.1722 12.3867 44.6202 11.384C45.0896 10.36 45.6976 9.528 46.4442 8.888C47.1909 8.22667 48.0442 7.74667 49.0042 7.448C49.9642 7.128 50.9456 6.968 51.9482 6.968C53.0789 6.968 54.1029 7.13867 55.0202 7.48C55.9589 7.82133 56.7589 8.29067 57.4202 8.888C58.1029 9.48533 58.6256 10.2 58.9883 11.032C59.3723 11.864 59.5643 12.7707 59.5643 13.752C59.5643 14.4773 59.3616 15.032 58.9562 15.416C58.5509 15.8 57.9856 16.0453 57.2603 16.152L49.3562 17.336C49.5909 18.04 50.0709 18.5733 50.7962 18.936C51.5216 19.2773 52.3536 19.448 53.2922 19.448C54.1669 19.448 54.9882 19.3413 55.7562 19.128C56.5456 18.8933 57.1856 18.6267 57.6762 18.328C58.0176 18.5413 58.3056 18.84 58.5402 19.224C58.7749 19.608 58.8923 20.0133 58.8923 20.44C58.8923 21.4 58.4443 22.1147 57.5483 22.584C56.8656 22.9467 56.0976 23.192 55.2442 23.32C54.3909 23.448 53.5909 23.512 52.8442 23.512ZM51.9482 10.936C51.4362 10.936 50.9882 11.0213 50.6042 11.192C50.2416 11.3627 49.9429 11.5867 49.7082 11.864C49.4736 12.12 49.2922 12.4187 49.1642 12.76C49.0576 13.08 48.9936 13.4107 48.9722 13.752L54.4443 12.856C54.3802 12.4293 54.1456 12.0027 53.7402 11.576C53.3349 11.1493 52.7376 10.936 51.9482 10.936ZM73.6388 13.144C73.6388 12.4827 73.4468 12.0027 73.0628 11.704C72.7001 11.384 72.1988 11.224 71.5588 11.224C71.1321 11.224 70.7054 11.2773 70.2788 11.384C69.8734 11.4907 69.5214 11.6507 69.2228 11.864V22.968C69.0094 23.032 68.6681 23.096 68.1988 23.16C67.7508 23.224 67.2814 23.256 66.7908 23.256C66.3214 23.256 65.8948 23.224 65.5108 23.16C65.1481 23.096 64.8388 22.968 64.5828 22.776C64.3268 22.584 64.1241 22.328 63.9748 22.008C63.8468 21.6667 63.7828 21.2293 63.7828 20.696V11.096C63.7828 10.52 63.9001 10.0507 64.1348 9.688C64.3908 9.32533 64.7321 8.99467 65.1588 8.696C65.8841 8.184 66.7908 7.768 67.8788 7.448C68.9881 7.128 70.2148 6.968 71.5588 6.968C73.9694 6.968 75.8254 7.50133 77.1268 8.568C78.4281 9.61333 79.0788 11.0747 79.0788 12.952V22.968C78.8654 23.032 78.5241 23.096 78.0548 23.16C77.6068 23.224 77.1374 23.256 76.6468 23.256C76.1774 23.256 75.7508 23.224 75.3668 23.16C75.0041 23.096 74.6948 22.968 74.4388 22.776C74.1828 22.584 73.9801 22.328 73.8308 22.008C73.7028 21.6667 73.6388 21.2293 73.6388 20.696V13.144ZM89.479 17.656C89.479 18.2107 89.6497 18.6053 89.991 18.84C90.3537 19.0747 90.855 19.192 91.495 19.192C91.815 19.192 92.1457 19.1707 92.487 19.128C92.8283 19.064 93.127 18.9893 93.383 18.904C93.575 19.1387 93.735 19.4053 93.863 19.704C94.0123 19.9813 94.087 20.3227 94.087 20.728C94.087 21.5387 93.7777 22.2 93.159 22.712C92.5617 23.224 91.495 23.48 89.959 23.48C88.0817 23.48 86.631 23.0533 85.607 22.2C84.6043 21.3467 84.103 19.96 84.103 18.04V4.344C84.3377 4.28 84.6683 4.216 85.095 4.152C85.543 4.06667 86.0123 4.024 86.503 4.024C87.4417 4.024 88.167 4.19467 88.679 4.536C89.2123 4.856 89.479 5.54933 89.479 6.616V8.664H93.671C93.799 8.89867 93.9163 9.19733 94.023 9.56C94.151 9.90133 94.215 10.2853 94.215 10.712C94.215 11.4587 94.0443 12.0027 93.703 12.344C93.383 12.664 92.9457 12.824 92.391 12.824H89.479V17.656ZM98.3235 3.128C98.3235 2.31733 98.5902 1.63467 99.1235 1.08C99.6782 0.525332 100.403 0.247999 101.299 0.247999C102.195 0.247999 102.91 0.525332 103.443 1.08C103.998 1.63467 104.275 2.31733 104.275 3.128C104.275 3.93867 103.998 4.62133 103.443 5.176C102.91 5.73067 102.195 6.008 101.299 6.008C100.403 6.008 99.6782 5.73067 99.1235 5.176C98.5902 4.62133 98.3235 3.93867 98.3235 3.128ZM104.019 22.968C103.785 23.0107 103.433 23.064 102.963 23.128C102.515 23.2133 102.057 23.256 101.587 23.256C101.118 23.256 100.691 23.224 100.307 23.16C99.9448 23.096 99.6355 22.968 99.3795 22.776C99.1235 22.584 98.9208 22.328 98.7715 22.008C98.6435 21.6667 98.5795 21.2293 98.5795 20.696V7.672C98.8142 7.62933 99.1555 7.576 99.6035 7.512C100.073 7.42667 100.542 7.384 101.011 7.384C101.481 7.384 101.897 7.416 102.259 7.48C102.643 7.544 102.963 7.672 103.219 7.864C103.475 8.056 103.667 8.32267 103.795 8.664C103.945 8.984 104.019 9.41067 104.019 9.944V22.968ZM125.179 15.224C125.179 16.5467 124.976 17.7307 124.571 18.776C124.165 19.8 123.589 20.664 122.843 21.368C122.117 22.072 121.243 22.6053 120.219 22.968C119.195 23.3307 118.053 23.512 116.795 23.512C115.536 23.512 114.395 23.32 113.371 22.936C112.347 22.552 111.461 22.008 110.715 21.304C109.989 20.5787 109.424 19.704 109.019 18.68C108.613 17.656 108.411 16.504 108.411 15.224C108.411 13.9653 108.613 12.824 109.019 11.8C109.424 10.776 109.989 9.912 110.715 9.208C111.461 8.48267 112.347 7.928 113.371 7.544C114.395 7.16 115.536 6.968 116.795 6.968C118.053 6.968 119.195 7.17067 120.219 7.576C121.243 7.96 122.117 8.51467 122.843 9.24C123.589 9.944 124.165 10.808 124.571 11.832C124.976 12.856 125.179 13.9867 125.179 15.224ZM113.979 15.224C113.979 16.5253 114.224 17.528 114.715 18.232C115.227 18.9147 115.931 19.256 116.827 19.256C117.723 19.256 118.405 18.904 118.875 18.2C119.365 17.496 119.611 16.504 119.611 15.224C119.611 13.944 119.365 12.9627 118.875 12.28C118.384 11.576 117.691 11.224 116.795 11.224C115.899 11.224 115.205 11.576 114.715 12.28C114.224 12.9627 113.979 13.944 113.979 15.224Z" fill="#F8F9FA"/>
</svg>
