<svg width="32" height="31" viewBox="0 0 32 31" fill="none" xmlns="http://www.w3.org/2000/svg">
<g clip-path="url(#clip0_37_240)">
<path d="M32 15.3879C32 19.466 30.3143 23.377 27.3137 26.2606C24.3131 29.1442 20.2435 30.7642 16 30.7642C11.7565 30.7642 7.68687 29.1442 4.68629 26.2606C1.68571 23.377 0 19.466 0 15.3879C0 11.3099 1.68571 7.39891 4.68629 4.51531C7.68687 1.63171 11.7565 0.0117188 16 0.0117188C20.2435 0.0117188 24.3131 1.63171 27.3137 4.51531C30.3143 7.39891 32 11.3099 32 15.3879ZM16 6.73882C16 6.48394 15.8946 6.2395 15.7071 6.05928C15.5196 5.87905 15.2652 5.7778 15 5.7778C14.7348 5.7778 14.4804 5.87905 14.2929 6.05928C14.1054 6.2395 14 6.48394 14 6.73882V17.31C14.0001 17.4794 14.0467 17.6457 14.1352 17.7922C14.2237 17.9387 14.3509 18.0601 14.504 18.1441L21.504 21.9882C21.7337 22.1075 22.0029 22.1357 22.254 22.0668C22.5051 21.9979 22.7181 21.8374 22.8477 21.6195C22.9772 21.4017 23.013 21.1437 22.9473 20.9009C22.8815 20.658 22.7196 20.4495 22.496 20.3199L16 16.7526V6.73882Z" fill="#F8F9FA"/>
</g>
<defs>
<clipPath id="clip0_37_240">
<rect width="32" height="30.7524" fill="white" transform="translate(0 0.0117188)"/>
</clipPath>
</defs>
</svg>
