<svg width="137" height="27" viewBox="0 0 137 27" fill="none" xmlns="http://www.w3.org/2000/svg">
<g clip-path="url(#clip0_37_65)">
<path d="M55.0237 16.0623V16.0212C55.0237 13.7106 55.4594 12.0578 56.3146 11.0465C56.9807 10.3475 57.918 9.96931 58.88 9.98569C60.0312 9.98569 60.9111 10.3393 61.5442 11.0382C61.8402 11.3753 62.0787 11.7618 62.2679 12.1647H67.3002C66.9465 10.7669 66.3134 9.45945 65.4336 8.31649C63.8548 6.51571 61.6265 5.61121 58.7403 5.61121C56.0104 5.61121 53.8807 6.54037 52.343 8.39872C50.8547 10.1995 50.1147 12.7239 50.1147 15.939C50.1147 15.98 50.1147 16.1363 50.1147 16.1775C50.1147 19.3925 50.8547 21.9087 52.343 23.7177C53.8807 25.5842 56.0104 26.5134 58.7403 26.5052C61.6182 26.5052 63.8467 25.6007 65.4336 23.7999C66.3134 22.657 66.9465 21.3495 67.3002 19.9517H63.2545C62.7119 19.9517 62.1774 20.2065 61.8732 20.6588C61.7745 20.8068 61.6594 20.9467 61.5442 21.0864C60.9193 21.7853 60.0395 22.1389 58.88 22.1389C57.9098 22.1635 56.9807 21.7771 56.3146 21.0782C55.4512 20.075 55.0237 18.414 55.0237 16.1034V16.0623Z" fill="#EA3D26"/>
<path d="M82.4481 6.17066C81.0173 5.56218 79.4221 5.44706 77.9256 5.8582C76.3549 6.2529 75.0229 7.28896 74.2582 8.71971V1.93596C74.2582 0.982122 73.4852 0.217407 72.5396 0.217407H69.3574V26.1519H74.2417V15.8159C74.2417 14.0563 74.5953 12.6749 75.3189 11.6717C76.0261 10.6767 77.1937 10.1094 78.4106 10.1669C79.5947 10.1341 80.7131 10.7261 81.3544 11.7292L81.3626 11.7374C81.7573 12.3213 82.0369 12.9709 82.1766 13.6616C82.3 14.3441 82.3576 15.0348 82.3576 15.7337V26.1354H87.1843V14.4592C87.1843 12.1486 86.7321 10.3396 85.8276 9.03218C84.9806 7.79055 83.8129 6.7956 82.4481 6.17066Z" fill="#EA3D26"/>
<path d="M46.1769 8.34966C44.5899 6.54066 42.3615 5.62793 39.4918 5.62793C36.7619 5.62793 34.624 6.5571 33.0945 8.41544C31.6144 10.2162 30.8662 12.7406 30.8662 15.9557C30.8662 19.3188 31.6309 21.9089 33.1603 23.7179C34.698 25.5681 36.8194 26.5054 39.5576 26.5054C41.8107 26.5054 43.669 25.8806 45.1573 24.7704C46.6456 23.6604 47.6487 22.0569 48.175 19.9519H44.335C43.743 19.9519 43.1838 20.2397 42.8385 20.7166C42.378 21.3498 41.4817 22.1392 39.8619 22.1392C38.612 22.1392 37.6746 21.7281 37.0415 20.9222C36.3672 20.1739 36.0136 19.0228 35.9642 17.4604H48.3806C48.3888 13.4559 47.7228 10.1998 46.1769 8.34966ZM35.9725 14.0644C36.0219 12.7653 36.3754 11.7621 37.0497 11.0549C37.7239 10.356 38.6613 9.96956 39.6316 10.0024C40.791 10.0024 41.7202 10.4054 42.2957 11.0549C42.8714 11.7127 43.2085 12.7077 43.3072 14.0644H35.9725Z" fill="#EA3D26"/>
<path d="M33.9321 1.93596C33.9321 0.982122 33.1592 0.217407 32.2135 0.217407H15.4967V4.8057H22.1572V26.1272H27.2635V4.8057H33.9321V1.93596Z" fill="#EA3D26"/>
<path d="M119.302 6.62274C118.134 6.94342 117.04 7.50257 116.103 8.2755C115.099 9.13889 114.319 10.2408 113.842 11.4741C113.249 13.0446 112.961 14.7221 113.011 16.3996V26.1271L118.043 26.1353V15.8075C118.043 14.2946 118.373 13.1927 119.046 12.4938C119.721 11.7948 120.749 11.433 122.138 11.433H123.791V6.08826H123.076C121.801 6.08826 120.526 6.26916 119.302 6.62274Z" fill="#EA3D26"/>
<path d="M134.342 11.4328C135.295 11.4328 136.06 10.6599 136.06 9.71428V6.09628L130.312 6.1045V1.92735C130.312 0.973519 129.539 0.200583 128.586 0.208805L125.28 0.217028V16.2102C125.231 17.8877 125.518 19.5652 126.111 21.1357C126.596 22.369 127.369 23.4709 128.372 24.3343C129.309 25.1072 130.395 25.6664 131.571 25.987C132.796 26.3489 134.07 26.5215 135.345 26.5215H136.06V21.185H134.407C133.018 21.185 131.99 20.8314 131.316 20.1243C130.642 19.4253 130.312 18.3235 130.312 16.8105V11.441H134.342V11.4328Z" fill="#EA3D26"/>
<path d="M98.8035 0.20874C97.8084 0.20874 96.9203 0.84189 96.6079 1.78751L88.4098 26.1267H93.8039L95.3909 20.7737H105.028L106.68 26.1267H112.066L103.071 0.20874H98.8035ZM96.7476 16.3993L100.193 5.39728L103.638 16.3993H96.7476Z" fill="#EA3D26"/>
<path d="M8.13857 26.1104H13.36V6.98425H8.13857V26.1104Z" fill="#EA3D26"/>
<path d="M0.770905 8.71102V12.5428H5.97589V6.98425H2.49767C1.54384 6.98425 0.770905 7.75719 0.770905 8.71102Z" fill="#EA3D26"/>
<path d="M13.3435 0.200684H10.1531H9.86535C9.39665 0.200684 8.97729 0.389806 8.66482 0.685825C8.64839 0.70227 8.64016 0.710493 8.62372 0.726938C8.31947 1.0394 8.13857 1.45876 8.13857 1.92746V2.22347V4.79719H13.3435V0.200684Z" fill="#EA3D26"/>
<path d="M5.97589 20.5603H0.770905V26.1106H5.97589V20.5603Z" fill="#EA3D26"/>
</g>
<defs>
<clipPath id="clip0_37_65">
<rect width="135.524" height="26.3248" fill="white" transform="translate(0.770905 0.196899)"/>
</clipPath>
</defs>
</svg>
