<svg width="166" height="34" viewBox="0 0 166 34" fill="none" xmlns="http://www.w3.org/2000/svg">
<g clip-path="url(#clip0_37_101)">
<path d="M24.7371 1.01685H8.50346C4.33537 1.01685 0.935089 4.52682 0.935089 8.80459V24.4898C0.935089 28.7676 4.33537 32.2775 8.50346 32.2775H24.7371C28.9052 32.2775 32.3055 28.7676 32.3055 24.4898V8.91428C32.3055 4.52682 28.9052 1.01685 24.7371 1.01685ZM6.85817 20.4314C3.56757 16.702 3.78694 8.14647 9.49064 5.40431C12.3425 4.08807 15.1943 6.83024 13.549 8.91428C9.49064 14.0695 6.85817 20.212 6.85817 20.4314ZM8.72284 20.4314C9.27127 19.2248 13.0006 11.5468 16.73 7.9271C20.6787 3.97838 29.0149 12.3146 25.0661 16.2633C21.3368 19.9926 13.6587 23.722 12.5619 24.2704C10.6972 25.0382 7.95503 22.296 8.72284 20.4314ZM27.4792 23.5026C24.8468 29.2063 16.2912 29.4257 12.5619 26.1351C12.7812 26.1351 18.9237 23.5026 24.079 19.5539C26.163 17.7989 28.7955 20.7604 27.4792 23.5026Z" fill="#0272B1"/>
<path d="M48.6488 15.9342C50.4038 15.1664 51.2812 13.7405 51.2812 11.6564C51.2812 10.0111 50.7328 8.80457 49.6359 7.92708C48.5391 7.04959 46.8938 6.61084 44.9194 6.61084H37.5704V26.7932H45.3582C47.5519 26.7932 49.3069 26.2447 50.5134 25.2576C51.72 24.2704 52.3781 22.8445 52.3781 20.9798C52.3781 19.7732 52.0491 18.786 51.3909 17.7989C50.6231 16.9214 49.7456 16.3729 48.6488 15.9342ZM40.6416 9.353H44.371C45.5775 9.353 46.455 9.57238 47.0035 10.0111C47.5519 10.4499 47.881 11.108 47.881 11.9855C47.881 13.0823 47.5519 13.8502 47.0035 14.2889C46.3453 14.8373 45.4679 15.0567 44.1516 15.0567H40.6416V9.353ZM47.881 23.2832C47.2228 23.8316 46.3454 24.051 45.1388 24.051H40.6416V17.6892H44.8097C47.4422 17.6892 48.8681 18.7861 48.8681 20.8701C48.8681 21.967 48.5391 22.7348 47.881 23.2832Z" fill="#0272B1"/>
<path d="M65.1018 15.2761C64.663 14.5083 64.0049 13.9599 63.2371 13.6308C62.4693 13.1921 61.5918 13.0824 60.6046 13.0824C59.3981 13.0824 58.3012 13.4115 57.2043 14.0696C56.2172 14.7277 55.4494 15.6052 54.9009 16.7021C54.3525 17.7989 54.1331 19.0055 54.1331 20.212C54.1331 21.638 54.4622 22.8445 55.0106 23.9414C55.559 25.0382 56.3269 25.806 57.314 26.4642C58.3012 27.0126 59.3981 27.3417 60.6046 27.3417C62.7984 27.3417 64.334 26.5738 65.3211 25.0382V26.9029H68.2827V13.4115H65.3211L65.1018 15.2761ZM64.1146 23.1736C63.3468 23.9414 62.3596 24.3801 61.1531 24.3801C59.9465 24.3801 58.9593 23.9414 58.1915 23.1736C57.4237 22.4058 57.0947 21.3089 57.0947 19.9927C57.0947 18.6764 57.4237 17.6892 58.1915 16.8117C58.9593 16.0439 59.9465 15.6052 61.1531 15.6052C62.3596 15.6052 63.3468 16.0439 64.1146 16.8117C64.8824 17.5795 65.2115 18.6764 65.2115 19.9927C65.2115 21.3089 64.7727 22.4058 64.1146 23.1736Z" fill="#0272B1"/>
<path d="M74.3154 13.4114H71.2442V26.7931H74.3154V13.4114Z" fill="#0272B1"/>
<path d="M72.7798 6.50122C72.2314 6.50122 71.7927 6.72059 71.4636 7.04965C71.1345 7.37871 70.9152 7.81746 70.9152 8.36589C70.9152 8.91433 71.1345 9.35307 71.4636 9.68213C71.7927 10.0112 72.2314 10.2306 72.7798 10.2306C73.3283 10.2306 73.767 10.0112 74.0961 9.68213C74.4251 9.35307 74.6445 8.91433 74.6445 8.36589C74.6445 7.81746 74.4251 7.37871 74.0961 7.04965C73.767 6.72059 73.3283 6.50122 72.7798 6.50122Z" fill="#0272B1"/>
<path d="M84.4066 13.192C83.5291 13.192 82.7613 13.4114 82.1032 13.8501C81.4451 14.2889 80.8966 14.8373 80.5676 15.7148V13.4114H77.606V26.7932H80.6773V20.541C80.6773 19.1151 81.0063 18.0182 81.5548 17.2504C82.1032 16.4826 82.9807 16.0439 84.0775 16.0439C84.626 16.0439 85.1744 16.1536 85.6132 16.3729L85.9422 13.5211C85.7228 13.4114 85.5035 13.4114 85.1744 13.3017C84.8454 13.192 84.626 13.192 84.4066 13.192Z" fill="#0272B1"/>
<path d="M96.5818 13.7405C95.5946 13.192 94.6074 12.9727 93.2912 12.9727C91.975 12.9727 90.7684 13.3017 89.7812 13.9598C88.794 14.618 87.9165 15.3858 87.3681 16.4826C86.8197 17.5795 86.4906 18.786 86.4906 20.1023C86.4906 21.5282 86.8197 22.8444 87.4778 23.9413C88.1359 25.0382 89.0134 25.806 90.1103 26.3544C91.2072 26.9029 92.304 27.2319 93.8396 27.2319C94.8268 27.2319 95.3753 27.1222 96.2527 26.9029C97.1302 26.6835 97.898 26.4641 98.5562 26.0254L98.2271 23.6123C96.8012 24.2704 95.5946 24.5994 94.059 24.5994C92.7428 24.5994 91.8653 24.2704 91.0975 23.6123C90.22 22.9541 89.7812 22.0766 89.5619 20.9798H99.4337C99.5434 20.7604 99.5434 20.212 99.5434 19.5539C99.5434 18.2376 99.324 17.0311 98.7755 16.0439C98.2271 15.0567 97.569 14.2889 96.5818 13.7405ZM89.5619 18.786C89.6715 17.6892 90.1103 16.8117 90.7684 16.2633C91.4265 15.7148 92.1943 15.3858 93.1815 15.3858C94.1687 15.3858 95.0462 15.7148 95.5946 16.2633C96.1431 16.8117 96.4721 17.6892 96.5818 18.786H89.5619Z" fill="#0272B1"/>
<path d="M107.331 18.6764C106.673 18.457 106.125 18.3473 105.686 18.1279C105.357 17.9086 105.028 17.7989 104.918 17.5795C104.808 17.3601 104.699 17.1407 104.699 16.8117C104.699 16.3729 104.918 16.0439 105.357 15.8245C105.795 15.6051 106.344 15.4954 107.112 15.4954C107.77 15.4954 108.428 15.6051 109.086 15.8245C109.744 16.0439 110.402 16.2633 110.951 16.5923L111.39 14.0695C110.841 13.7405 110.293 13.5211 109.415 13.3017C108.647 13.0823 107.88 12.9727 107.002 12.9727C105.357 12.9727 104.15 13.3017 103.163 14.0695C102.176 14.8373 101.737 15.8245 101.737 17.0311C101.737 18.1279 102.066 18.8957 102.724 19.5539C103.382 20.212 104.479 20.7604 106.015 21.1991C106.783 21.4185 107.331 21.6379 107.77 21.7476C108.209 21.967 108.428 22.0766 108.647 22.296C108.867 22.5154 108.867 22.7348 108.867 23.1735C108.867 24.1607 107.989 24.7091 106.125 24.7091C105.466 24.7091 104.699 24.5994 103.821 24.2704C103.053 24.051 102.395 23.7219 101.737 23.2832L101.298 25.806C101.847 26.2447 102.505 26.4641 103.382 26.6835C104.26 26.9029 105.137 27.0125 106.125 27.0125C107.88 27.0125 109.196 26.6835 110.293 25.9157C111.28 25.1479 111.828 24.1607 111.828 22.9541C111.828 21.8573 111.499 20.9798 110.731 20.3217C110.183 19.7732 108.976 19.2248 107.331 18.6764Z" fill="#0272B1"/>
<path d="M130.475 9.02403C128.501 7.26904 125.649 6.28186 122.139 6.28186H114.132V27.0126H121.81C125.429 27.0126 128.391 26.1351 130.365 24.2705C132.449 22.4058 133.437 19.883 133.437 16.5924C133.546 13.4115 132.559 10.8887 130.475 9.02403ZM128.72 16.7021C128.72 21.0896 126.417 23.1736 121.81 23.1736H118.848V10.2306H121.919C126.526 10.2306 128.72 12.3146 128.72 16.7021Z" fill="#0272B1"/>
<path d="M146.16 13.4114C145.173 12.863 143.966 12.5339 142.65 12.5339C141.224 12.5339 139.908 12.863 138.811 13.5211C137.714 14.1792 136.837 15.0567 136.288 16.2633C135.74 17.3601 135.411 18.6764 135.411 20.1023C135.411 21.6379 135.74 22.9542 136.398 24.051C137.056 25.1479 138.043 26.0254 139.25 26.6835C140.456 27.2319 141.553 27.561 143.199 27.561C144.186 27.561 144.954 27.4513 145.831 27.2319C146.818 27.0126 147.586 26.7932 148.244 26.3544L148.464 26.2448L148.025 22.7348L147.586 22.9542C147.038 23.2832 146.27 23.5026 145.612 23.6123C144.844 23.722 144.405 23.8317 143.637 23.8317C141.334 23.8317 140.237 23.0638 139.798 21.4185H149.122V21.1992C149.231 20.7604 149.231 20.1023 149.231 19.5539C149.231 18.128 148.902 16.9214 148.354 15.8245C147.915 14.7277 147.147 13.9599 146.16 13.4114ZM145.173 18.2376H139.798C140.018 17.5795 140.237 17.0311 140.676 16.5923C141.115 16.1536 141.773 15.9342 142.541 15.9342C143.308 15.9342 143.966 16.1536 144.405 16.5923C144.844 17.0311 145.063 17.5795 145.173 18.2376Z" fill="#0272B1"/>
<path d="M160.749 12.9727L157.677 21.967L154.825 12.9727H150.109L155.484 27.1222H159.761L165.246 12.9727H160.749Z" fill="#0272B1"/>
</g>
<defs>
<clipPath id="clip0_37_101">
<rect width="164.53" height="32.906" fill="white" transform="translate(0.825409 0.907104)"/>
</clipPath>
</defs>
</svg>
