<svg width="94" height="94" viewBox="0 0 94 94" fill="none" xmlns="http://www.w3.org/2000/svg">
<g filter="url(#filter0_dddd_37_183)">
<circle cx="47" cy="47" r="32" fill="white"/>
</g>
<path d="M35.0417 35.2778C36.3073 35.2778 37.3333 34.2518 37.3333 32.9861C37.3333 31.7205 36.3073 30.6945 35.0417 30.6945C33.776 30.6945 32.75 31.7205 32.75 32.9861C32.75 34.2518 33.776 35.2778 35.0417 35.2778Z" fill="white"/>
<path d="M61.7717 42.4003C63.0373 42.4003 64.0633 41.3743 64.0633 40.1086C64.0633 38.843 63.0373 37.817 61.7717 37.817C60.506 37.817 59.48 38.843 59.48 40.1086C59.48 41.3743 60.506 42.4003 61.7717 42.4003Z" fill="white"/>
<path d="M41.9113 58.2006C43.177 58.2006 44.203 57.1746 44.203 55.9089C44.203 54.6433 43.177 53.6172 41.9113 53.6172C40.6457 53.6172 39.6197 54.6433 39.6197 55.9089C39.6197 57.1746 40.6457 58.2006 41.9113 58.2006Z" fill="white"/>
<path d="M30.7921 40.7045L33.1457 38.6313L36.8383 38.48L39.1063 40.6395L39.6288 43.6798L30.4003 43.6737L30.7921 40.7045ZM57.5695 47.8285L59.9238 45.7553L63.6165 45.604L65.8837 47.7636L66.4069 50.8038L57.1776 50.7985L57.5695 47.8285ZM37.7038 63.6272L40.0574 61.554L43.7508 61.4028L46.018 63.5623L46.5405 66.6026L37.3119 66.5965L37.7038 63.6272Z" fill="white"/>
<path d="M35.0417 35.2778C36.3073 35.2778 37.3333 34.2517 37.3333 32.9861C37.3333 31.7204 36.3073 30.6944 35.0417 30.6944C33.776 30.6944 32.75 31.7204 32.75 32.9861C32.75 34.2517 33.776 35.2778 35.0417 35.2778Z" stroke="#4E54C8" stroke-opacity="0.8" stroke-width="0.9" stroke-miterlimit="10"/>
<path d="M30.4583 42.9166C30.4583 42.9166 31.2222 39.6235 32.75 38.8596C34.2778 38.0957 35.8055 38.0957 37.3333 38.8596C38.8611 39.6235 39.625 42.9166 39.625 42.9166" stroke="#4E54C8" stroke-opacity="0.8" stroke-width="0.9" stroke-miterlimit="10" stroke-linecap="round" stroke-linejoin="round"/>
<path d="M61.7717 42.4003C63.0373 42.4003 64.0633 41.3742 64.0633 40.1086C64.0633 38.8429 63.0373 37.8169 61.7717 37.8169C60.506 37.8169 59.48 38.8429 59.48 40.1086C59.48 41.3742 60.506 42.4003 61.7717 42.4003Z" stroke="#4E54C8" stroke-opacity="0.8" stroke-width="0.9" stroke-miterlimit="10"/>
<path d="M57.1883 50.0392C57.1883 50.0392 57.9522 46.746 59.48 45.9822C61.0078 45.2183 62.5355 45.2183 64.0633 45.9822C65.5911 46.746 66.355 50.0384 66.355 50.0384" stroke="#4E54C8" stroke-opacity="0.8" stroke-width="0.9" stroke-miterlimit="10" stroke-linecap="round" stroke-linejoin="round"/>
<path d="M41.9113 58.2006C43.177 58.2006 44.203 57.1745 44.203 55.9089C44.203 54.6432 43.177 53.6172 41.9113 53.6172C40.6457 53.6172 39.6197 54.6432 39.6197 55.9089C39.6197 57.1745 40.6457 58.2006 41.9113 58.2006Z" stroke="#4E54C8" stroke-opacity="0.8" stroke-width="0.9" stroke-miterlimit="10"/>
<path d="M28.2331 45.1992C28.1888 45.7103 28.1666 46.2231 28.1667 46.7361C28.1667 52.8273 31.2665 58.1944 35.9751 61.347M37.328 65.8394C37.328 65.8394 38.0919 62.5463 39.6196 61.7824C41.1474 61.0185 42.6752 61.0185 44.203 61.7824C45.7308 62.5463 46.4946 65.8387 46.4946 65.8387L37.328 65.8394ZM59.1439 35.3817C55.921 31.5798 51.1101 29.1667 45.7361 29.1667C43.6201 29.1667 41.5928 29.541 39.7144 30.2262L59.1439 35.3817ZM49.1224 63.9794C55.3962 62.7541 60.4753 58.1914 62.4347 52.2139L49.1224 63.9794Z" stroke="#4E54C8" stroke-opacity="0.8" stroke-width="0.9" stroke-miterlimit="10" stroke-linecap="round" stroke-linejoin="round"/>
<defs>
<filter id="filter0_dddd_37_183" x="0" y="0" width="94" height="94" filterUnits="userSpaceOnUse" color-interpolation-filters="sRGB">
<feFlood flood-opacity="0" result="BackgroundImageFix"/>
<feColorMatrix in="SourceAlpha" type="matrix" values="0 0 0 0 0 0 0 0 0 0 0 0 0 0 0 0 0 0 127 0" result="hardAlpha"/>
<feOffset dx="5"/>
<feGaussianBlur stdDeviation="5"/>
<feComposite in2="hardAlpha" operator="out"/>
<feColorMatrix type="matrix" values="0 0 0 0 0.560784 0 0 0 0 0.580392 0 0 0 0 0.984314 0 0 0 0.3 0"/>
<feBlend mode="normal" in2="BackgroundImageFix" result="effect1_dropShadow_37_183"/>
<feColorMatrix in="SourceAlpha" type="matrix" values="0 0 0 0 0 0 0 0 0 0 0 0 0 0 0 0 0 0 127 0" result="hardAlpha"/>
<feOffset dx="-5"/>
<feGaussianBlur stdDeviation="5"/>
<feComposite in2="hardAlpha" operator="out"/>
<feColorMatrix type="matrix" values="0 0 0 0 0.560784 0 0 0 0 0.580392 0 0 0 0 0.984314 0 0 0 0.3 0"/>
<feBlend mode="normal" in2="effect1_dropShadow_37_183" result="effect2_dropShadow_37_183"/>
<feColorMatrix in="SourceAlpha" type="matrix" values="0 0 0 0 0 0 0 0 0 0 0 0 0 0 0 0 0 0 127 0" result="hardAlpha"/>
<feOffset dy="5"/>
<feGaussianBlur stdDeviation="5"/>
<feComposite in2="hardAlpha" operator="out"/>
<feColorMatrix type="matrix" values="0 0 0 0 0.560784 0 0 0 0 0.580392 0 0 0 0 0.984314 0 0 0 0.3 0"/>
<feBlend mode="normal" in2="effect2_dropShadow_37_183" result="effect3_dropShadow_37_183"/>
<feColorMatrix in="SourceAlpha" type="matrix" values="0 0 0 0 0 0 0 0 0 0 0 0 0 0 0 0 0 0 127 0" result="hardAlpha"/>
<feOffset dy="-5"/>
<feGaussianBlur stdDeviation="5"/>
<feComposite in2="hardAlpha" operator="out"/>
<feColorMatrix type="matrix" values="0 0 0 0 0.560784 0 0 0 0 0.580392 0 0 0 0 0.984314 0 0 0 0.3 0"/>
<feBlend mode="normal" in2="effect3_dropShadow_37_183" result="effect4_dropShadow_37_183"/>
<feBlend mode="normal" in="SourceGraphic" in2="effect4_dropShadow_37_183" result="shape"/>
</filter>
</defs>
</svg>
