<svg width="67" height="67" viewBox="0 0 67 67" fill="none" xmlns="http://www.w3.org/2000/svg">
<g clip-path="url(#clip0_37_151)">
<path d="M27.7886 15.6333C29.9111 13.4218 32.8661 12.0501 36.1342 12.0501C40.4785 12.0501 44.2688 14.4726 46.2873 18.0688C48.0413 17.2851 49.9829 16.8491 52.0256 16.8491C59.8611 16.8491 66.2136 23.2569 66.2136 31.1609C66.2136 39.0658 59.8611 45.4736 52.0256 45.4736C51.0871 45.4741 50.1509 45.3808 49.2309 45.1951C47.4535 48.3657 44.0663 50.5079 40.1785 50.5079C38.551 50.5079 37.0117 50.132 35.6411 49.4635C33.8392 53.7019 29.6411 56.6737 24.7483 56.6737C19.653 56.6737 15.3106 53.4497 13.6437 48.9282C12.9153 49.0829 12.1606 49.1635 11.3862 49.1635C5.31974 49.1636 0.401627 44.1949 0.401627 38.0646C0.401627 33.9566 2.6113 30.3696 5.89439 28.4506C5.21848 26.8954 4.84252 25.1788 4.84252 23.3741C4.84252 16.3242 10.5659 10.6093 17.6253 10.6093C21.7699 10.6093 25.4533 12.5799 27.7886 15.6333Z" fill="#00A1E0"/>
<path d="M9.93389 34.4972C9.89265 34.6051 9.94891 34.6276 9.96202 34.6463C10.0857 34.7363 10.2114 34.8011 10.338 34.8732C11.0092 35.2294 11.643 35.3334 12.3058 35.3334C13.6558 35.3334 14.4939 34.6153 14.4939 33.4594V33.4369C14.4939 32.3681 13.548 31.98 12.6602 31.6997L12.5449 31.6622C11.8755 31.4447 11.298 31.2573 11.298 30.8166V30.7933C11.298 30.4164 11.6355 30.1388 12.1586 30.1388C12.7399 30.1388 13.4299 30.332 13.8742 30.5776C13.8742 30.5776 14.0045 30.662 14.0524 30.5354C14.0786 30.4679 14.3036 29.8623 14.3271 29.7967C14.3524 29.7254 14.3074 29.6729 14.2615 29.6447C13.7543 29.3363 13.053 29.1254 12.3274 29.1254L12.1924 29.1263C10.9568 29.1263 10.0944 29.8726 10.0944 30.9422V30.9647C10.0944 32.0925 11.0459 32.4581 11.9375 32.7131L12.0809 32.7572C12.7306 32.9569 13.2903 33.1284 13.2903 33.5859V33.6085C13.2903 34.0266 12.9266 34.3378 12.3397 34.3378C12.1119 34.3378 11.3853 34.3331 10.6006 33.8371C10.5059 33.7818 10.4506 33.7415 10.3775 33.6975C10.3391 33.6731 10.2425 33.6309 10.2004 33.7584L9.93389 34.4972V34.4972ZM29.6971 34.4972C29.6559 34.6051 29.7121 34.6276 29.7252 34.6463C29.849 34.7363 29.9747 34.8011 30.1011 34.8732C30.7724 35.2294 31.4062 35.3334 32.069 35.3334C33.4189 35.3334 34.2571 34.6153 34.2571 33.4594V33.4369C34.2571 32.3681 33.3112 31.98 32.4233 31.6997L32.308 31.6622C31.6387 31.4447 31.0611 31.2573 31.0611 30.8166V30.7933C31.0611 30.4164 31.3986 30.1388 31.9217 30.1388C32.503 30.1388 33.193 30.332 33.6374 30.5776C33.6374 30.5776 33.7677 30.662 33.8155 30.5354C33.8417 30.4679 34.0667 29.8623 34.0902 29.7967C34.1155 29.7254 34.0705 29.6729 34.0246 29.6447C33.5174 29.3363 32.8161 29.1254 32.0905 29.1254L31.9555 29.1263C30.7199 29.1263 29.8574 29.8726 29.8574 30.9422V30.9647C29.8574 32.0925 30.8089 32.4581 31.7005 32.7131L31.8439 32.7572C32.4936 32.9569 33.0543 33.1284 33.0543 33.5859V33.6085C33.0543 34.0266 32.6896 34.3378 32.1027 34.3378C31.875 34.3378 31.1484 34.3331 30.3637 33.8371C30.269 33.7818 30.2128 33.7434 30.1416 33.6975C30.1171 33.6815 30.0028 33.6375 29.9634 33.7584L29.6971 34.4972V34.4972ZM43.189 32.233C43.189 32.8865 43.0671 33.4011 42.8271 33.7649C42.5899 34.1249 42.2308 34.3002 41.7303 34.3002C41.2288 34.3002 40.8716 34.1258 40.6381 33.7649C40.4018 33.4021 40.2819 32.8865 40.2819 32.233C40.2819 31.5806 40.4018 31.0668 40.6381 30.7068C40.8716 30.3506 41.2288 30.1771 41.7303 30.1771C42.2309 30.1771 42.5899 30.3506 42.8281 30.7068C43.0671 31.0667 43.189 31.5805 43.189 32.233V32.233ZM44.3159 31.0218C44.2052 30.6477 44.0327 30.3177 43.8031 30.043C43.5734 29.7674 43.2828 29.5462 42.9377 29.3849C42.5936 29.2246 42.1868 29.1431 41.7303 29.1431C41.2728 29.1431 40.8659 29.2246 40.5218 29.3849C40.1768 29.5462 39.8862 29.7675 39.6556 30.043C39.4269 30.3187 39.2543 30.6487 39.1428 31.0218C39.0331 31.3939 38.9778 31.8008 38.9778 32.233C38.9778 32.6652 39.0331 33.073 39.1428 33.4442C39.2543 33.8174 39.4259 34.1474 39.6566 34.423C39.8862 34.6986 40.1778 34.9189 40.5219 35.0754C40.8668 35.232 41.2728 35.3117 41.7304 35.3117C42.1869 35.3117 42.5928 35.232 42.9378 35.0754C43.2818 34.9189 43.5734 34.6985 43.8031 34.423C44.0328 34.1483 44.2053 33.8183 44.3159 33.4442C44.4266 33.0721 44.4819 32.6642 44.4819 32.233C44.4819 31.8018 44.4265 31.3939 44.3159 31.0218V31.0218ZM53.5695 34.1257C53.532 34.016 53.4261 34.0572 53.4261 34.0572C53.2621 34.1201 53.0876 34.1782 52.902 34.2072C52.7136 34.2362 52.5064 34.2513 52.2842 34.2513C51.7386 34.2513 51.3055 34.0891 50.9952 33.7685C50.6839 33.4479 50.5096 32.9295 50.5114 32.2282C50.5133 31.5898 50.667 31.1097 50.9436 30.7442C51.2183 30.3805 51.6365 30.1938 52.1943 30.1938C52.6593 30.1938 53.0136 30.2473 53.3848 30.3645C53.3848 30.3645 53.4739 30.4029 53.516 30.2867C53.6145 30.0129 53.6876 29.817 53.7926 29.516C53.8226 29.4307 53.7495 29.3941 53.7232 29.3838C53.577 29.3266 53.232 29.2339 52.9714 29.1945C52.7276 29.157 52.4426 29.1373 52.1257 29.1373C51.6522 29.1373 51.2304 29.2179 50.8695 29.3792C50.5095 29.5395 50.2039 29.7607 49.9621 30.0364C49.7201 30.312 49.5364 30.6419 49.4136 31.0151C49.2917 31.3872 49.2299 31.796 49.2299 32.2282C49.2299 33.1629 49.4821 33.9184 49.9799 34.4716C50.4786 35.0266 51.2277 35.3088 52.2046 35.3088C52.7821 35.3088 53.3746 35.1916 53.8002 35.0238C53.8002 35.0238 53.8818 34.9844 53.8461 34.8898L53.5695 34.1257V34.1257ZM55.5412 31.607C55.5946 31.2443 55.6949 30.9423 55.8496 30.7071C56.0831 30.3499 56.4393 30.154 56.94 30.154C57.4406 30.154 57.7715 30.3508 58.0087 30.7071C58.1662 30.9423 58.2347 31.2574 58.2619 31.607H55.5412ZM59.3352 30.8092C59.2396 30.4483 59.0024 30.0836 58.8468 29.9167C58.6011 29.6523 58.3612 29.4677 58.1231 29.3645C57.8118 29.2314 57.4387 29.1433 57.03 29.1433C56.5537 29.1433 56.1215 29.223 55.7709 29.388C55.4194 29.553 55.1241 29.778 54.8925 30.0583C54.6609 30.3376 54.4865 30.6705 54.3759 31.0483C54.2643 31.4242 54.2081 31.8339 54.2081 32.266C54.2081 32.7058 54.2662 33.1154 54.3815 33.4838C54.4978 33.8551 54.6834 34.1823 54.9346 34.4532C55.1849 34.726 55.5075 34.9398 55.8937 35.0887C56.2772 35.2369 56.7431 35.3138 57.2784 35.3128C58.38 35.309 58.9602 35.0634 59.1993 34.9312C59.2415 34.9078 59.2819 34.8666 59.2311 34.7485L58.9818 34.05C58.9444 33.946 58.8384 33.9844 58.8384 33.9844C58.5655 34.0856 58.1775 34.2675 57.2727 34.2657C56.6812 34.2647 56.2424 34.0904 55.9677 33.8175C55.6855 33.5382 55.5477 33.1275 55.5233 32.5482L59.338 32.5519C59.338 32.5519 59.4383 32.5501 59.4487 32.4525C59.4524 32.4114 59.58 31.6689 59.3352 30.8092V30.8092ZM24.9913 31.607C25.0457 31.2443 25.1451 30.9423 25.2998 30.7071C25.5332 30.3499 25.8894 30.154 26.39 30.154C26.8906 30.154 27.2216 30.3508 27.4597 30.7071C27.6162 30.9423 27.6847 31.2574 27.7119 31.607H24.9913V31.607ZM28.7844 30.8092C28.6888 30.4483 28.4525 30.0836 28.2969 29.9167C28.0513 29.6523 27.8113 29.4677 27.5732 29.3645C27.2619 29.2314 26.8889 29.1433 26.4801 29.1433C26.0048 29.1433 25.5716 29.223 25.221 29.388C24.8695 29.553 24.5742 29.778 24.3426 30.0583C24.1111 30.3376 23.9367 30.6705 23.8261 31.0483C23.7155 31.4242 23.6583 31.8339 23.6583 32.266C23.6583 32.7058 23.7164 33.1154 23.8317 33.4838C23.948 33.8551 24.1337 34.1823 24.3849 34.4532C24.6352 34.726 24.9577 34.9398 25.3439 35.0887C25.7274 35.2369 26.1933 35.3138 26.7286 35.3128C27.8301 35.309 28.4104 35.0634 28.6495 34.9312C28.6917 34.9078 28.732 34.8666 28.6814 34.7485L28.433 34.05C28.3945 33.946 28.2886 33.9844 28.2886 33.9844C28.0158 34.0856 27.6286 34.2675 26.7221 34.2657C26.1315 34.2647 25.6927 34.0904 25.418 33.8175C25.1358 33.5382 24.998 33.1275 24.9736 32.5482L28.7883 32.5519C28.7883 32.5519 28.8885 32.5501 28.8989 32.4525C28.9025 32.4114 29.03 31.6689 28.7844 30.8092V30.8092ZM16.746 34.1048C16.5969 33.9857 16.5763 33.9557 16.5257 33.8788C16.4507 33.7616 16.4122 33.5948 16.4122 33.3829C16.4122 33.0473 16.5229 32.8063 16.7526 32.6442C16.7498 32.6451 17.0807 32.3582 17.8588 32.3685C18.4053 32.376 18.8937 32.4567 18.8937 32.4567V34.191H18.8947C18.8947 34.191 18.41 34.295 17.8644 34.3279C17.0882 34.3748 16.7432 34.1039 16.746 34.1048V34.1048ZM18.2637 31.4245C18.1091 31.4132 17.9084 31.4066 17.6684 31.4066C17.3413 31.4066 17.0253 31.4479 16.7291 31.5276C16.431 31.6072 16.1628 31.732 15.9322 31.8969C15.7019 32.0613 15.5126 32.2765 15.3791 32.526C15.2441 32.7772 15.1757 33.0735 15.1757 33.4054C15.1757 33.7429 15.2338 34.0363 15.35 34.2763C15.4663 34.5173 15.6341 34.7179 15.8478 34.8726C16.0597 35.0273 16.3213 35.1407 16.625 35.2091C16.9241 35.2775 17.2634 35.3122 17.6347 35.3122C18.0256 35.3122 18.4156 35.2804 18.7934 35.2156C19.1675 35.1519 19.6268 35.059 19.7543 35.03C19.8437 35.0085 19.9328 34.9857 20.0215 34.9616C20.1162 34.9382 20.1087 34.8369 20.1087 34.8369L20.1068 31.3485C20.1068 30.5835 19.9025 30.0163 19.5003 29.6648C19.0999 29.3142 18.5103 29.1369 17.7481 29.1369C17.4621 29.1369 17.0019 29.1764 16.7262 29.2316C16.7262 29.2316 15.8928 29.3929 15.5496 29.661C15.5496 29.661 15.4747 29.7079 15.5159 29.8129L15.7859 30.5386C15.8197 30.6323 15.9107 30.6004 15.9107 30.6004C15.9107 30.6004 15.9397 30.5892 15.9735 30.5695C16.7076 30.1701 17.6357 30.1823 17.6357 30.1823C18.0482 30.1823 18.3651 30.2648 18.5788 30.4288C18.7869 30.5882 18.8928 30.8291 18.8928 31.3372V31.4985C18.5647 31.4516 18.2637 31.4245 18.2637 31.4245V31.4245ZM49.0306 29.459C49.0596 29.3727 48.9987 29.3314 48.9734 29.3221C48.9087 29.2968 48.5843 29.2283 48.334 29.2124C47.855 29.1833 47.5888 29.264 47.3506 29.3708C47.1144 29.4777 46.8519 29.6501 46.7056 29.8461V29.3821C46.7056 29.3174 46.6597 29.2658 46.5959 29.2658H45.6181C45.5544 29.2658 45.5084 29.3173 45.5084 29.3821V35.0717C45.5084 35.1354 45.561 35.188 45.6247 35.188H46.6269C46.6576 35.1878 46.6869 35.1754 46.7085 35.1536C46.7301 35.1318 46.7422 35.1024 46.7421 35.0717V32.2293C46.7421 31.8477 46.7844 31.4671 46.8688 31.228C46.9512 30.9917 47.0638 30.8024 47.2025 30.6664C47.3422 30.5315 47.5006 30.4368 47.6741 30.3834C47.8512 30.329 48.0471 30.3112 48.1859 30.3112C48.3856 30.3112 48.605 30.3627 48.605 30.3627C48.678 30.3711 48.7193 30.3261 48.7436 30.2596C48.8093 30.0852 48.995 29.563 49.0306 29.459" fill="white"/>
<path d="M39.6236 26.822C39.5017 26.7845 39.3911 26.7592 39.2467 26.732C39.1004 26.7058 38.9261 26.6926 38.7283 26.6926C38.0382 26.6926 37.4945 26.8876 37.113 27.272C36.7333 27.6545 36.4754 28.2367 36.346 29.0026L36.2991 29.2604H35.433C35.433 29.2604 35.3279 29.2567 35.3054 29.3711L35.1639 30.1651C35.1536 30.2401 35.1864 30.2879 35.2876 30.2879H36.1305L35.2754 35.0616C35.2088 35.446 35.132 35.762 35.0466 36.0019C34.9632 36.2382 34.8817 36.4153 34.7804 36.5447C34.6829 36.6685 34.591 36.7603 34.4316 36.8138C34.3004 36.8578 34.1485 36.8785 33.9826 36.8785C33.8907 36.8785 33.768 36.8634 33.677 36.8447C33.587 36.8268 33.5392 36.8072 33.4707 36.7781C33.4707 36.7781 33.3723 36.7406 33.3329 36.8391C33.3019 36.9206 33.077 37.5384 33.0498 37.6144C33.0235 37.6903 33.061 37.7494 33.1088 37.7672C33.2213 37.8065 33.3047 37.8328 33.4575 37.8693C33.6695 37.9191 33.8485 37.9218 34.0163 37.9218C34.3669 37.9218 34.6875 37.8722 34.9528 37.7766C35.2191 37.68 35.4515 37.5121 35.6578 37.2853C35.88 37.0397 36.0197 36.7828 36.1529 36.4313C36.285 36.0844 36.3985 35.6531 36.4885 35.1507L37.3482 30.2879H38.6044C38.6044 30.2879 38.7102 30.2917 38.7319 30.1764L38.8743 29.3833C38.8838 29.3074 38.8519 29.2605 38.7496 29.2605H37.53C37.5366 29.2333 37.5918 28.8039 37.7316 28.3999C37.7916 28.2284 37.904 28.0886 37.9988 27.993C38.0926 27.8992 38.2004 27.8327 38.3185 27.7942C38.4394 27.7548 38.5773 27.7361 38.7282 27.7361C38.8426 27.7361 38.956 27.7492 39.0413 27.767C39.1594 27.7924 39.2053 27.8055 39.2363 27.8149C39.3611 27.8524 39.3779 27.8158 39.4023 27.7559L39.6939 26.9553C39.7238 26.8689 39.6498 26.8323 39.6236 26.822V26.822ZM22.5823 35.072C22.5823 35.1357 22.5364 35.1873 22.4726 35.1873H21.4611C21.3973 35.1873 21.3523 35.1357 21.3523 35.072V26.9308C21.3523 26.8671 21.3973 26.8155 21.4611 26.8155H22.4726C22.5364 26.8155 22.5823 26.8671 22.5823 26.9308V35.072Z" fill="white"/>
</g>
<defs>
<clipPath id="clip0_37_151">
<rect width="65.812" height="65.812" fill="white" transform="translate(0.401627 0.735474)"/>
</clipPath>
</defs>
</svg>
