<svg width="79" height="34" viewBox="0 0 79 34" fill="none" xmlns="http://www.w3.org/2000/svg">
<g clip-path="url(#clip0_37_77)">
<path fill-rule="evenodd" clip-rule="evenodd" d="M17.0239 17.6726C16.8112 17.714 16.595 17.7349 16.3783 17.735H7.38121C7.2979 17.735 7.19377 17.7142 7.11046 17.7142L14.7122 10.0709C14.8006 9.96035 14.9266 9.88623 15.0662 9.86259C17.3571 9.65433 19.4606 10.3416 20.1062 12.9241C20.6686 15.1109 19.2732 17.1727 17.0239 17.6726ZM3.42416 11.4246C2.86184 9.21697 4.25722 7.15514 6.52732 6.6553C6.74003 6.61389 6.95623 6.59297 7.17294 6.59282H16.17C16.2533 6.59282 16.3575 6.61365 16.4408 6.61365L8.81824 14.2778C8.72977 14.3883 8.60376 14.4625 8.46419 14.4861C6.17326 14.6944 4.06978 14.0071 3.42416 11.4246ZM0.675049 23.2749H22.8553V1.0946H0.675049V23.2749Z" fill="#231F20"/>
<path fill-rule="evenodd" clip-rule="evenodd" d="M28.2078 20.2342H28.4369C29.6865 20.2342 30.6237 19.6719 30.6237 18.3181C30.6237 16.8811 29.7906 16.2563 28.4369 16.2563H28.2078V20.2342ZM24.459 13.0282H28.2494C31.6858 13.0282 34.3308 14.5485 34.3308 18.3181C34.3308 21.3588 32.1857 23.2957 29.1658 23.2957H24.4382V13.0282H24.459Z" fill="#231F20"/>
<path fill-rule="evenodd" clip-rule="evenodd" d="M34.6432 23.3165H38.3711V13.0282H34.6432V23.3165Z" fill="#231F20"/>
<path fill-rule="evenodd" clip-rule="evenodd" d="M49.9715 17.2559C49.9507 18.922 49.9507 20.3382 48.722 21.6503C47.639 22.8374 45.952 23.483 44.3692 23.483C41.2452 23.483 38.7044 21.5462 38.7044 18.2556C38.7044 14.9025 41.1619 12.8823 44.39 12.8823C46.1811 12.8823 48.6178 13.7779 49.4301 15.5273L45.952 16.7977C45.8113 16.5486 45.6047 16.343 45.3549 16.2034C45.1051 16.0638 44.8218 15.9956 44.5358 16.0063C43.2029 16.0063 42.474 17.1518 42.474 18.3805C42.474 19.5052 43.1821 20.5673 44.39 20.5673C44.9732 20.5673 45.7229 20.2966 45.9104 19.6718H44.2026V17.2559H49.9715Z" fill="#231F20"/>
<path fill-rule="evenodd" clip-rule="evenodd" d="M50.3256 23.3165H54.0535V13.0282H50.3256V23.3165Z" fill="#231F20"/>
<path fill-rule="evenodd" clip-rule="evenodd" d="M54.5326 13.0282H62.3842V16.3813L60.3223 16.2771V23.3165H56.5944V16.2771L54.5326 16.3813V13.0282Z" fill="#231F20"/>
<path fill-rule="evenodd" clip-rule="evenodd" d="M67.0493 19.5886L66.612 17.7767C66.5078 17.3393 66.4245 16.8811 66.3621 16.4646H66.2163L65.529 19.5886H67.0493ZM64.571 23.3165H60.6139L64.1961 13.0282H68.3198L71.9852 23.2957H68.0282L67.695 22.0253H64.8834L64.571 23.3165Z" fill="#231F20"/>
<path fill-rule="evenodd" clip-rule="evenodd" d="M71.8811 13.0282H75.6091V20.0051H78.7539V23.3165H71.8811V13.0282Z" fill="#231F20"/>
<path fill-rule="evenodd" clip-rule="evenodd" d="M37.1215 6.13464H37.5172C38.2462 6.13464 39.0168 6.00968 39.0168 5.09331C39.0168 4.21859 38.1837 4.15611 37.4964 4.15611H37.1215V6.13464ZM33.1645 1.0946H38.3711C41.0161 1.0946 42.953 2.44833 42.953 5.23909C42.953 7.55084 41.5159 8.98788 39.225 8.98788H37.1215V12.3826H33.1645V1.0946Z" fill="#231F20"/>
<path fill-rule="evenodd" clip-rule="evenodd" d="M43.3695 12.3826H47.4723V1.0946H43.3695V12.3826Z" fill="#231F20"/>
<path fill-rule="evenodd" clip-rule="evenodd" d="M52.1375 6.09298H52.4291C53.0955 6.09298 53.7828 5.98885 53.7828 5.15579C53.7828 4.28107 53.1788 4.17694 52.4707 4.17694H52.1583L52.1375 6.09298ZM48.118 1.0946H53.0747C55.6155 1.0946 57.7815 2.17759 57.7815 5.01C57.7815 6.71778 57.1151 7.44671 55.5947 7.94655V8.02985C55.8543 8.21825 56.0857 8.44265 56.282 8.6963L58.7395 12.3618H54.0119L52.2208 8.73795H52.1375V12.3618H48.118V1.0946Z" fill="#231F20"/>
<path fill-rule="evenodd" clip-rule="evenodd" d="M58.3022 1.0946H65.8831V4.17694H62.4258V5.25992H65.5915V8.19647H62.4258V9.30027H66.008V12.3826H58.3022V1.0946Z" fill="#231F20"/>
<path fill-rule="evenodd" clip-rule="evenodd" d="M30.3321 5.30151L29.3949 5.09324C29.0825 5.00994 28.5618 4.96828 28.5618 4.53092C28.5618 4.09357 29.0825 3.92695 29.4366 3.92695C30.2458 3.95692 31.0282 4.22497 31.6858 4.69754L32.7896 1.82347C31.7488 1.2113 30.5607 0.894487 29.3532 0.907101C26.8957 0.907101 24.459 2.40661 24.459 5.09324C24.459 6.8635 25.8127 7.8007 27.4164 8.09227L28.2494 8.23805C28.6243 8.32136 29.1658 8.36301 29.1658 8.86285C29.1658 9.36269 28.5202 9.5293 28.1245 9.5293C27.1873 9.5293 26.2917 9.07112 25.5628 8.48797L25.3545 8.32136L24.1049 11.5078C25.4602 12.1748 26.9473 12.5306 28.4577 12.5492C30.8944 12.5492 33.3519 11.2163 33.3519 8.52963C33.3103 6.61358 32.0607 5.67639 30.3321 5.30151Z" fill="#231F20"/>
<path fill-rule="evenodd" clip-rule="evenodd" d="M0.883301 26.8778H78.504V26.6696H0.883301V26.8778Z" fill="#231F20"/>
<path fill-rule="evenodd" clip-rule="evenodd" d="M9.96369 29.8561V32.1887L8.11012 29.8561H7.33954V33.8131H8.25591V31.5847L10.0262 33.8131H10.8801V29.8561H9.96369Z" fill="#231F20"/>
<path fill-rule="evenodd" clip-rule="evenodd" d="M5.2569 33.8131H6.29823V29.8561H5.2569V33.8131Z" fill="#231F20"/>
<path fill-rule="evenodd" clip-rule="evenodd" d="M3.13257 29.8561L1.88298 31.5639V29.8561H0.883301V33.8131H1.88298V32.7718L2.25785 32.3344L3.2367 33.8131H4.42382L2.9243 31.543L4.36134 29.8561H3.13257Z" fill="#231F20"/>
<path fill-rule="evenodd" clip-rule="evenodd" d="M18.1277 30.6891C18.3139 30.6837 18.4983 30.7269 18.6627 30.8146C18.827 30.9022 18.9657 31.0313 19.0649 31.1889L19.8355 30.7099C19.4606 30.106 18.9399 29.8352 18.1277 29.8352C17.128 29.8352 16.0867 30.5433 16.0867 31.8137C16.0867 33.0841 17.128 33.7922 18.1277 33.7922C18.9191 33.7922 19.4398 33.5215 19.8355 32.9175L19.1066 32.4594C19.005 32.6258 18.8605 32.762 18.6883 32.8535C18.5161 32.9451 18.3225 32.9888 18.1277 32.98C17.5029 32.98 17.0864 32.501 17.0864 31.8137C17.0864 31.1265 17.5029 30.6891 18.1277 30.6891Z" fill="#231F20"/>
<path fill-rule="evenodd" clip-rule="evenodd" d="M26.3542 31.9595H25.8335V30.6683H26.3542C26.4409 30.6649 26.5273 30.6791 26.6083 30.7101C26.6894 30.7411 26.7632 30.7882 26.8255 30.8485C26.8878 30.9089 26.9372 30.9812 26.9708 31.0612C27.0043 31.1412 27.0213 31.2272 27.0207 31.3139C27.0238 31.4013 27.0085 31.4884 26.9758 31.5695C26.9431 31.6507 26.8938 31.724 26.831 31.7849C26.7682 31.8458 26.6933 31.8928 26.6111 31.9228C26.529 31.9529 26.4415 31.9654 26.3542 31.9595ZM27.9995 31.3139C28.0071 31.1239 27.9761 30.9344 27.9081 30.7568C27.8402 30.5792 27.7368 30.4173 27.6044 30.281C27.4719 30.1446 27.313 30.0366 27.1375 29.9635C26.962 29.8905 26.7734 29.8539 26.5833 29.856H24.8339V33.8131H25.8335V32.7509H26.3542L27.0623 33.8131H28.1869L27.3539 32.5635C27.5571 32.4255 27.7225 32.2389 27.8353 32.0206C27.948 31.8024 28.0045 31.5595 27.9995 31.3139Z" fill="#231F20"/>
<path fill-rule="evenodd" clip-rule="evenodd" d="M22.2305 31.2515L22.7096 32.5427H21.7307L22.2305 31.2515ZM21.9181 29.8561L20.252 33.8131H21.2725L21.4808 33.2508H23.0011L23.2094 33.8131H24.2299L22.5638 29.8561H21.9181Z" fill="#231F20"/>
<path fill-rule="evenodd" clip-rule="evenodd" d="M33.6852 31.2515L34.1642 32.5427H33.1853L33.6852 31.2515ZM33.3728 29.8561L31.7066 33.8131H32.7271L32.9354 33.2508H34.4557L34.664 33.8131H35.6845L34.0184 29.8561H33.3728Z" fill="#231F20"/>
<path fill-rule="evenodd" clip-rule="evenodd" d="M28.5826 29.8561V30.6475H29.6448V33.8131H30.6445V30.6475H31.7066V29.8561H28.5826Z" fill="#231F20"/>
<path fill-rule="evenodd" clip-rule="evenodd" d="M14.004 31.5222V30.4808H13.3793V31.5222H12.3379V32.147H13.3793V33.1883H14.004V32.147H15.0454V31.5222H14.004Z" fill="#231F20"/>
</g>
<defs>
<clipPath id="clip0_37_77">
<rect width="78.0788" height="32.906" fill="white" transform="translate(0.675049 0.907104)"/>
</clipPath>
</defs>
</svg>
