<svg width="100" height="67" viewBox="0 0 100 67" fill="none" xmlns="http://www.w3.org/2000/svg">
<path d="M75.0468 33.358L81.3066 26.2792C82.2037 25.2651 82.1078 23.7154 81.094 22.8191C80.0803 21.9221 78.53 22.0175 77.6334 23.0315L71.7748 29.6573L65.9164 23.0315C65.0193 22.0174 63.4703 21.9221 62.4557 22.8191C61.442 23.716 61.3463 25.2651 62.2432 26.2792L68.5022 33.358L62.2425 40.4367C61.3453 41.4508 61.4412 43.0005 62.455 43.8969C63.4688 44.7938 65.0188 44.6984 65.9157 43.6844L71.774 37.0586L77.6326 43.6844C78.5298 44.6985 80.0787 44.7939 81.0933 43.8969C82.1071 43 82.2027 41.4508 81.3059 40.4367L75.0468 33.358Z" fill="#00D258"/>
<path d="M45.9688 44.9693C39.5673 44.9693 34.3589 39.7617 34.3589 33.3595C34.3589 26.9573 39.5673 21.7496 45.9688 21.7496C52.37 21.7496 57.5786 26.9573 57.5786 33.3595C57.5786 39.7617 52.3702 44.9693 45.9688 44.9693ZM45.9688 26.6531C42.2709 26.6531 39.2624 29.6616 39.2624 33.3595C39.2624 37.0571 42.2709 40.0659 45.9688 40.0659C49.6664 40.0659 52.6751 37.0574 52.6751 33.3595C52.6751 29.6616 49.6666 26.6531 45.9688 26.6531V26.6531Z" fill="url(#paint0_linear_37_114)"/>
<path d="M23.4039 44.9693C17.0017 44.9693 11.794 39.7607 11.794 33.3595C11.794 26.9583 17.0017 21.7496 23.4039 21.7496C25.4838 21.7496 27.5254 22.3071 29.3079 23.3612C30.4734 24.0505 30.8591 25.5541 30.1702 26.7195C29.4813 27.8851 27.9773 28.2708 26.8118 27.5814C25.7849 26.9741 24.6062 26.6529 23.4043 26.6529C19.7065 26.6529 16.698 29.6613 16.698 33.3592C16.698 37.0571 19.7065 40.0656 23.4043 40.0656C24.6063 40.0656 25.7851 39.7443 26.8118 39.1371C27.9773 38.4477 29.4808 38.8334 30.1702 39.9989C30.8591 41.1644 30.4743 42.6679 29.3079 43.3572C27.5252 44.4112 25.4836 44.9688 23.4039 44.9688V44.9693Z" fill="#00AAF4"/>
<path d="M85.727 40.3049C86.0636 40.3049 86.3923 40.3917 86.713 40.5654C87.0337 40.7373 87.2835 40.9844 87.4625 41.3069C87.6414 41.6276 87.7309 41.9625 87.7309 42.3115C87.7309 42.657 87.6423 42.9892 87.4651 43.3082C87.2897 43.6271 87.0426 43.8752 86.7236 44.0524C86.4065 44.2278 86.0743 44.3155 85.727 44.3155C85.3797 44.3155 85.0466 44.2278 84.7277 44.0524C84.4106 43.8752 84.1634 43.6271 83.9862 43.3082C83.809 42.9892 83.7205 42.657 83.7205 42.3115C83.7205 41.9625 83.8099 41.6276 83.9889 41.3069C84.1696 40.9844 84.4203 40.7373 84.741 40.5654C85.0617 40.3918 85.3904 40.3049 85.727 40.3049H85.727ZM85.727 40.6371C85.4453 40.6371 85.1706 40.7098 84.9031 40.8551C84.6373 40.9986 84.4292 41.205 84.2785 41.4743C84.1279 41.7419 84.0526 42.021 84.0526 42.3115C84.0526 42.6003 84.1262 42.8776 84.2732 43.1434C84.422 43.4074 84.6293 43.6138 84.8951 43.7627C85.1609 43.9097 85.4382 43.9832 85.727 43.9832C86.0158 43.9832 86.2931 43.9097 86.5589 43.7627C86.8246 43.6138 87.031 43.4074 87.1781 43.1434C87.3252 42.8776 87.3987 42.6003 87.3987 42.3115C87.3987 42.021 87.3234 41.7419 87.1728 41.4743C87.024 41.205 86.8158 40.9986 86.5482 40.8551C86.2807 40.7098 86.0069 40.6371 85.727 40.6371V40.6371ZM84.9281 43.4198V41.2617H85.6696C85.9229 41.2617 86.0498 41.2821 86.1632 41.3228C86.2766 41.3618 86.3306 41.4309 86.3979 41.5301C86.4652 41.6294 86.4989 41.7348 86.4989 41.8464C86.4989 42.1099 86.4514 42.3235 86.1065 42.5007L86.7406 43.4198H86.3154C86.074 43.0637 85.7236 42.5657 85.7236 42.5657H85.2763V43.4198L84.9281 43.4198ZM85.2763 42.268H85.6988C85.9008 42.268 86.0395 42.2023 86.0913 42.1234C86.1426 42.0456 86.1663 41.9619 86.1658 41.8757C86.1655 41.8162 86.1481 41.7552 86.1127 41.7055C86.0772 41.6542 86.0276 41.6161 85.9638 41.5913C85.9018 41.5665 85.8423 41.5541 85.6722 41.5541H85.2762L85.2763 42.268Z" fill="#00D258"/>
<defs>
<linearGradient id="paint0_linear_37_114" x1="37.7631" y1="25.1513" x2="54.1736" y2="41.5613" gradientUnits="userSpaceOnUse">
<stop offset="0.12" stop-color="#00AAF4"/>
<stop offset="0.88" stop-color="#00D258"/>
</linearGradient>
</defs>
</svg>
