<svg width="67" height="67" viewBox="0 0 67 67" fill="none" xmlns="http://www.w3.org/2000/svg">
<g clip-path="url(#clip0_37_122)">
<path fill-rule="evenodd" clip-rule="evenodd" d="M0.905823 0.735474H66.7178V66.5474H0.905823V0.735474Z" fill="white"/>
<path fill-rule="evenodd" clip-rule="evenodd" d="M1.87341 12.2712H65.7502V55.0117H1.87341V12.2712Z" fill="white"/>
<path fill-rule="evenodd" clip-rule="evenodd" d="M2.70923 12.9288L64.758 13.0647V37.688L33.8381 24.8333L2.70923 37.3015V12.9288Z" fill="#CF4037"/>
<path fill-rule="evenodd" clip-rule="evenodd" d="M53.1147 42.2407V43.5985C53.3342 42.8255 53.647 42.4288 54.0229 42.2407C54.9317 41.7705 56.0489 42.2093 56.3309 43.0761C56.6549 44.0472 56.3937 44.872 55.9448 45.3002C55.7775 45.4675 55.3807 45.6242 55.1199 45.6242C54.1591 45.6242 53.6995 45.1749 53.7828 44.183C53.8347 43.6088 53.156 44.3917 53.1147 44.5378V52.6101H54.3469V53.8318H49.6683V52.6101H50.5871V43.5879H49.6683V42.241H53.1147V42.2407V42.2407ZM26.6743 42.2407V43.5985C26.8938 42.8255 27.2069 42.4288 27.5722 42.2407C28.4913 41.7705 29.5983 42.2093 29.8799 43.0761C30.2036 44.0472 29.953 44.872 29.504 45.3002C29.3371 45.4675 28.9297 45.6242 28.6685 45.6242C27.7081 45.6242 27.2486 45.1749 27.3424 44.183C27.3841 43.6088 26.7053 44.3917 26.6739 44.5378V52.6101H27.8959V53.8318H23.218V52.6101H24.1368V43.5879H23.218V42.241H26.6743V42.2407V42.2407ZM46.1701 41.9272C46.8802 41.9272 47.517 42.1468 48.1124 42.6688C48.6973 43.1175 49.1773 43.8805 49.4908 44.7887C49.825 45.7597 49.9295 46.7519 49.9295 47.8797C49.9295 49.4567 49.668 50.8139 49.0732 51.8795C48.3835 53.2264 47.4019 53.8321 46.1697 53.8321C44.9795 53.8321 44.0191 53.2267 43.3717 52.099C42.7244 50.8979 42.411 49.4571 42.411 47.9425C42.411 46.2927 42.7244 44.9349 43.424 43.7341C44.0717 42.523 44.9798 41.9272 46.1701 41.9272ZM46.1916 42.9717C45.941 42.9717 45.732 43.1178 45.5753 43.3998C45.45 43.6924 45.3247 44.3295 45.2827 45.1855C45.1994 46.0418 45.1994 47.2426 45.1994 48.809C45.1994 49.582 45.2414 50.3649 45.2827 51.0857C45.3247 51.6599 45.45 52.0772 45.6169 52.3592C45.7323 52.6412 45.941 52.7873 46.1499 52.7873C46.3589 52.7873 46.5262 52.6412 46.6409 52.5053C46.8082 52.2134 46.9335 51.858 46.9857 51.367C47.1004 50.6575 47.1424 49.1638 47.1424 46.9605C47.1424 45.687 47.1004 44.7573 47.0171 44.2558C46.9338 43.8276 46.7771 43.3995 46.6098 43.1909C46.5255 43.055 46.3582 42.9717 46.1916 42.9717ZM60.0067 41.9272C60.7169 41.9272 61.3536 42.1468 61.9491 42.6688C62.5339 43.1175 63.014 43.8805 63.3274 44.7887C63.6617 45.7597 63.776 46.7519 63.776 47.8797C63.776 49.4567 63.5046 50.8139 62.9092 51.8795C62.2202 53.2264 61.2386 53.8321 60.0064 53.8321C58.8161 53.8321 57.855 53.2267 57.2077 52.099C56.5603 50.8979 56.2476 49.4571 56.2476 47.9425C56.2476 46.2927 56.5603 44.9349 57.2606 43.7341C57.908 42.523 58.8161 41.9272 60.0067 41.9272ZM60.0272 42.9717C59.7773 42.9717 59.5676 43.1178 59.4116 43.3998C59.2863 43.6924 59.161 44.3295 59.119 45.1855C59.0456 46.0418 59.0456 47.2426 59.0456 48.809C59.0456 49.582 59.077 50.3649 59.119 51.0857C59.161 51.6599 59.2863 52.0772 59.4532 52.3592C59.568 52.6412 59.7773 52.7873 59.9862 52.7873C60.1952 52.7873 60.3625 52.6412 60.4772 52.5053C60.6438 52.2134 60.7691 51.858 60.822 51.367C60.9367 50.6575 60.9781 49.1638 60.9781 46.9605C60.9781 45.687 60.9367 44.7573 60.8534 44.2558C60.7694 43.8276 60.6127 43.3995 60.4461 43.1909C60.3621 43.055 60.1945 42.9717 60.0272 42.9717V42.9717ZM37.5658 38.189V43.7867C37.9625 42.9403 38.5265 42.7631 39.1841 42.7525C41.3041 42.7006 41.9828 45.9899 41.9722 48.0886C41.9722 50.6992 41.1893 54.0411 39.3723 54.0411C38.7041 54.0411 37.9625 53.8215 37.7744 53.3101L37.5658 53.8321L33.9736 53.8215L33.9839 52.6105H34.8924V39.4109H33.9736V38.1893H37.5658V38.189V38.189ZM37.5658 45.4678V49.6237C37.5658 50.5011 37.5658 51.0546 37.5972 51.3049C37.6392 51.6811 37.6911 51.9945 37.8167 52.2451C37.9314 52.4958 38.1196 52.6105 38.2968 52.6105C38.4436 52.6105 38.5996 52.4958 38.715 52.3076C38.8403 52.1089 38.9236 51.7436 39.0278 51.1901C39.0803 50.564 39.1432 49.5718 39.1432 48.0787C39.1432 46.6478 39.0493 45.656 38.871 45.0919C38.7464 44.7157 38.5682 44.5385 38.3596 44.5385C38.0772 44.5381 37.8164 44.841 37.5658 45.4678V45.4678ZM33.1382 38.189V52.6101H33.7647V53.8318H29.5983V52.6101H30.2978V39.4106H29.5983V38.189H33.1382V38.189ZM19.4692 53.2366C18.3831 54.3337 16.9733 53.9888 16.368 53.6648C14.7179 52.8191 14.5612 48.9975 15.7517 48.0473C16.8064 47.2323 17.6627 47.0971 19.0308 47.4723V43.912C19.0308 43.5046 18.7593 42.8569 18.1431 42.8569C17.6002 42.8569 17.2137 43.0031 17.2137 43.2643C17.2137 43.6504 18.0386 43.8491 17.9969 44.9349C17.9655 45.5931 17.6104 46.4593 16.6394 46.4593C15.7206 46.4593 15.073 45.5617 15.073 44.8516C15.073 42.7631 16.5872 42.1263 18.8949 42.1263C20.2002 42.1263 21.8397 43.0345 21.8397 44.601L21.8605 51.9109C21.8605 52.0048 21.9025 52.4432 22.2156 52.3175C22.3201 52.2762 22.5915 52.0147 22.6854 51.858L23.1866 52.9963C22.9152 53.5183 21.9438 54.0612 21.0667 54.0612C20.1479 54.0615 19.8553 53.6959 19.4692 53.2366V53.2366ZM19.1038 52.0147V48.4956C18.4876 48.2761 18.07 48.7257 17.861 49.2891C17.5896 50.0621 17.6627 51.169 17.9239 51.942C18.1325 52.5371 18.8529 52.4848 19.1038 52.0147V52.0147ZM9.24617 48.1197L10.3633 38.189H14.9685V39.4106L14.175 39.4212V52.6101H14.9685V53.8318H10.3633V52.6101H11.0837V44.5173L9.5695 53.8318H7.31438L5.87322 44.5272V52.6101H6.55198V53.8318H3.39822V52.6101H4.1917L4.18146 39.4106H3.39822V38.189H7.4291L9.24617 48.1197Z" fill="black"/>
</g>
<defs>
<clipPath id="clip0_37_122">
<rect width="65.812" height="65.812" fill="white" transform="translate(0.905823 0.735474)"/>
</clipPath>
</defs>
</svg>
