<svg width="94" height="94" viewBox="0 0 94 94" fill="none" xmlns="http://www.w3.org/2000/svg">
<g filter="url(#filter0_dddd_37_185)">
<circle cx="47" cy="47" r="32" fill="white"/>
</g>
<path d="M36 37C34.355 37 33 38.355 33 40V54C33 55.645 34.355 57 36 57H58C59.645 57 61 55.645 61 54V40C61 38.355 59.645 37 58 37H36ZM36 39H58C58.566 39 59 39.434 59 40V42H36V44H59V54C59 54.566 58.566 55 58 55H36C35.434 55 35 54.566 35 54V40C35 39.434 35.434 39 36 39Z" fill="#4E54C8" fill-opacity="0.8"/>
<defs>
<filter id="filter0_dddd_37_185" x="0" y="0" width="94" height="94" filterUnits="userSpaceOnUse" color-interpolation-filters="sRGB">
<feFlood flood-opacity="0" result="BackgroundImageFix"/>
<feColorMatrix in="SourceAlpha" type="matrix" values="0 0 0 0 0 0 0 0 0 0 0 0 0 0 0 0 0 0 127 0" result="hardAlpha"/>
<feOffset dx="5"/>
<feGaussianBlur stdDeviation="5"/>
<feComposite in2="hardAlpha" operator="out"/>
<feColorMatrix type="matrix" values="0 0 0 0 0.560784 0 0 0 0 0.580392 0 0 0 0 0.984314 0 0 0 0.3 0"/>
<feBlend mode="normal" in2="BackgroundImageFix" result="effect1_dropShadow_37_185"/>
<feColorMatrix in="SourceAlpha" type="matrix" values="0 0 0 0 0 0 0 0 0 0 0 0 0 0 0 0 0 0 127 0" result="hardAlpha"/>
<feOffset dx="-5"/>
<feGaussianBlur stdDeviation="5"/>
<feComposite in2="hardAlpha" operator="out"/>
<feColorMatrix type="matrix" values="0 0 0 0 0.560784 0 0 0 0 0.580392 0 0 0 0 0.984314 0 0 0 0.3 0"/>
<feBlend mode="normal" in2="effect1_dropShadow_37_185" result="effect2_dropShadow_37_185"/>
<feColorMatrix in="SourceAlpha" type="matrix" values="0 0 0 0 0 0 0 0 0 0 0 0 0 0 0 0 0 0 127 0" result="hardAlpha"/>
<feOffset dy="5"/>
<feGaussianBlur stdDeviation="5"/>
<feComposite in2="hardAlpha" operator="out"/>
<feColorMatrix type="matrix" values="0 0 0 0 0.560784 0 0 0 0 0.580392 0 0 0 0 0.984314 0 0 0 0.3 0"/>
<feBlend mode="normal" in2="effect2_dropShadow_37_185" result="effect3_dropShadow_37_185"/>
<feColorMatrix in="SourceAlpha" type="matrix" values="0 0 0 0 0 0 0 0 0 0 0 0 0 0 0 0 0 0 127 0" result="hardAlpha"/>
<feOffset dy="-5"/>
<feGaussianBlur stdDeviation="5"/>
<feComposite in2="hardAlpha" operator="out"/>
<feColorMatrix type="matrix" values="0 0 0 0 0.560784 0 0 0 0 0.580392 0 0 0 0 0.984314 0 0 0 0.3 0"/>
<feBlend mode="normal" in2="effect3_dropShadow_37_185" result="effect4_dropShadow_37_185"/>
<feBlend mode="normal" in="SourceGraphic" in2="effect4_dropShadow_37_185" result="shape"/>
</filter>
</defs>
</svg>
