<svg width="67" height="67" viewBox="0 0 67 67" fill="none" xmlns="http://www.w3.org/2000/svg">
<g clip-path="url(#clip0_37_128)">
<path d="M33.5555 0.736328C15.3827 0.736328 0.649475 15.4682 0.649475 33.6416C0.649475 51.8148 15.3827 66.5469 33.5555 66.5469C51.7296 66.5469 66.4614 51.8148 66.4614 33.6416C66.4615 15.4682 51.7297 0.736328 33.5555 0.736328ZM33.5555 64.9015C16.2904 64.9015 2.29621 50.9062 2.29621 33.6416C2.29621 16.3773 16.2904 2.38118 33.5555 2.38118C50.8206 2.38118 64.8159 16.3772 64.8159 33.6416C64.8159 50.9061 50.8206 64.9015 33.5555 64.9015Z" fill="url(#paint0_linear_37_128)"/>
<path d="M65.0517 33.6414C65.0517 51.0347 50.949 65.1369 33.5555 65.1369C16.1618 65.1369 2.06067 51.0347 2.06067 33.6414C2.06067 16.2471 16.1618 2.14587 33.5555 2.14587C50.949 2.14587 65.0517 16.2471 65.0517 33.6414Z" fill="#333333"/>
<path d="M64.8159 33.6414C64.8159 50.906 50.8206 64.9013 33.5555 64.9013C16.2904 64.9013 2.2962 50.906 2.2962 33.6414C2.2962 16.3771 16.2904 2.38098 33.5555 2.38098C50.8206 2.38098 64.8159 16.3771 64.8159 33.6414Z" fill="url(#paint1_radial_37_128)"/>
<path d="M54.5132 33.6414C54.5132 45.2156 45.1302 54.5983 33.5557 54.5983C21.9809 54.5983 12.5978 45.2158 12.5978 33.6414C12.5978 22.0667 21.9809 12.6838 33.5557 12.6838C45.1301 12.6838 54.5132 22.0667 54.5132 33.6414Z" fill="url(#paint2_linear_37_128)"/>
<path d="M34.395 12.1174L36.572 6.34739V12.1174H38.2255V3.85376H35.7406L33.4805 9.77043H33.502L31.2419 3.85376H28.757V12.1174H30.4105V6.34739L32.5875 12.1174H34.395ZM57.0865 15.8229L54.2615 19.9419L58.6987 17.7596L59.9022 19.2029L52.9186 22.7094L51.5076 21.001L54.2146 16.9194L54.1986 16.8993L49.6958 18.8266L48.2686 17.1297L52.9775 10.8944L54.1812 12.3384L51.2327 16.3089L55.7958 14.2737L57.0865 15.8229Z" fill="black"/>
<path d="M18.9201 14.2442C18.2546 13.5981 17.2277 13.4034 16.2623 14.0018C16.4471 13.5238 16.3721 13.0372 16.2744 12.7673C15.858 12.0102 15.7121 11.9144 15.3721 11.6272C14.2621 10.6973 13.0945 11.4914 12.2604 12.4854L8.22775 17.2914L14.5673 22.6101L18.8197 17.5432C19.7916 16.3851 19.9416 15.237 18.9201 14.2442ZM10.7192 16.5619L13.1415 13.6752C13.4226 13.3411 14.0572 13.3545 14.4642 13.6973C14.9127 14.0735 14.9141 14.6064 14.6128 14.9659L12.2175 17.8192L10.7192 16.5619ZM17.4018 17.0418L14.8766 20.0511L13.2954 18.7222L15.8395 15.6896C16.1273 15.3468 16.7686 15.2471 17.2011 15.6098C17.6883 16.0196 17.7365 16.6429 17.4018 17.0418Z" fill="#333333"/>
<path d="M34.4125 11.7981L36.5895 6.02818V11.7981H38.243V3.53442H35.7579L33.4979 9.4509H33.5194L31.2593 3.53442H28.7743V11.7981H30.4278V6.02818L32.605 11.7981H34.4125Z" fill="url(#paint3_radial_37_128)"/>
<path d="M57.1027 15.2684L54.2789 19.3876L58.7161 17.2046L59.9184 18.6485L52.9359 22.1551L51.5248 20.446L54.232 16.365L54.2161 16.3443L49.7119 18.2723L48.2862 16.5746L52.995 10.34L54.1986 11.7834L51.2505 15.7539L55.8119 13.7194L57.1027 15.2684Z" fill="url(#paint4_radial_37_128)"/>
<path d="M18.6241 14.0816C17.96 13.4355 16.9318 13.2406 15.9678 13.8386C16.1511 13.3605 16.0762 12.8738 15.9786 12.6053C15.5621 11.8469 15.4175 11.7525 15.0747 11.4647C13.9648 10.5341 12.7986 11.3286 11.9658 12.3236L7.93158 17.1289L14.2713 22.4476L18.5236 17.3799C19.4945 16.2218 19.6457 15.0744 18.6241 14.0816ZM10.4235 16.3991L12.8455 13.5132C13.1255 13.1785 13.76 13.1919 14.1684 13.5339C14.6169 13.9108 14.6183 14.4443 14.3156 14.8025L11.9218 17.6563L10.4235 16.3991ZM17.1072 16.8791L14.5821 19.8883L12.9981 18.5594L15.5435 15.5262C15.8313 15.1841 16.4713 15.0843 16.9038 15.4473C17.3937 15.8576 17.442 16.4795 17.1072 16.8791Z" fill="url(#paint5_radial_37_128)"/>
<path d="M13.2954 33.6417C13.2954 22.452 22.3665 13.3809 33.5556 13.3809C44.7459 13.3809 53.8158 22.4519 53.8158 33.6417C53.8158 44.831 44.7459 53.9017 33.5556 53.9017C22.3664 53.9017 13.2954 44.8309 13.2954 33.6417Z" fill="url(#paint6_radial_37_128)"/>
<path d="M13.8779 33.6417C13.8779 22.7739 22.6878 13.9633 33.5557 13.9633C44.4236 13.9633 53.2346 22.7739 53.2346 33.6417C53.2346 44.5096 44.4234 53.3202 33.5556 53.3202C22.6878 53.3202 13.8779 44.5096 13.8779 33.6417Z" fill="url(#paint7_radial_37_128)"/>
<path d="M13.847 33.6417H33.5555V13.9331C22.6702 13.9331 13.847 22.7564 13.847 33.6417Z" fill="url(#paint8_radial_37_128)"/>
<path d="M33.5555 33.6417V53.3504C44.4407 53.3504 53.2641 44.5255 53.2641 33.6417H33.5555Z" fill="url(#paint9_radial_37_128)"/>
<path d="M53.4273 33.2914H33.9049V13.769H33.206V33.2914H13.6836V33.9904H33.206V53.5134H33.9049V33.9904H53.4273V33.2914Z" fill="url(#paint10_radial_37_128)"/>
<path d="M33.9049 14.322C44.3016 14.5069 52.691 22.8956 52.877 33.2914H53.2249C53.0391 22.7028 44.4942 14.1568 33.9048 13.9719L33.9049 14.322Z" fill="url(#paint11_linear_37_128)"/>
<path d="M14.2005 33.2888C14.3852 22.8789 22.7867 14.4781 33.1967 14.2926V13.9431C22.5927 14.1285 14.0371 22.686 13.851 33.2888L14.2005 33.2888Z" fill="#C2D7E8"/>
<path d="M33.206 52.961C22.8095 52.7764 14.4201 44.387 14.2352 33.9905H13.8859C14.0719 44.5797 22.6167 53.1261 33.206 53.3108L33.206 52.961Z" fill="url(#paint12_linear_37_128)"/>
<path d="M52.8771 33.9905C52.691 44.387 44.3015 52.7764 33.905 52.961V53.3108C44.4943 53.1261 53.0404 44.5798 53.2251 33.9905H52.8771Z" fill="#12404F"/>
<path d="M32.8326 13.9432V32.908H13.8684V33.2822H33.206V13.9432H32.8326Z" fill="url(#paint13_linear_37_128)"/>
<path d="M32.8004 53.1274V34.3908H14.0251V34.0214H33.1699V53.1274H32.8004Z" fill="url(#paint14_linear_37_128)"/>
<path d="M34.3053 53.1274V34.3908H53.0417V34.0214H33.9371V53.1274H34.3053Z" fill="url(#paint15_linear_37_128)"/>
<path d="M34.3053 14.1106V32.847H53.0417V33.2159H33.9371V14.1106H34.3053Z" fill="url(#paint16_linear_37_128)"/>
</g>
<defs>
<linearGradient id="paint0_linear_37_128" x1="-4.16743" y1="-2.81149" x2="65.6521" y2="64.6572" gradientUnits="userSpaceOnUse">
<stop stop-color="#DFF4FF"/>
<stop offset="0.098" stop-color="#D6EAF5"/>
<stop offset="0.268" stop-color="#BFD0D9"/>
<stop offset="0.488" stop-color="#98A5AC"/>
<stop offset="0.747" stop-color="#646B6E"/>
<stop offset="1" stop-color="#2B2B2B"/>
</linearGradient>
<radialGradient id="paint1_radial_37_128" cx="0" cy="0" r="1" gradientUnits="userSpaceOnUse" gradientTransform="translate(0.239363 2.91256) scale(46.7504)">
<stop stop-color="white"/>
<stop offset="0.306" stop-color="#A8A8A8"/>
<stop offset="0.646" stop-color="#4F4F4F"/>
<stop offset="0.885" stop-color="#161616"/>
<stop offset="1"/>
</radialGradient>
<linearGradient id="paint2_linear_37_128" x1="57.5813" y1="56.8579" x2="13.1135" y2="13.8874" gradientUnits="userSpaceOnUse">
<stop stop-color="#DFF4FF"/>
<stop offset="0.086" stop-color="#D6EAF5"/>
<stop offset="0.233" stop-color="#BED0D9"/>
<stop offset="0.424" stop-color="#96A4AC"/>
<stop offset="0.652" stop-color="#5F686D"/>
<stop offset="0.907" stop-color="#1A1D1E"/>
<stop offset="1"/>
</linearGradient>
<radialGradient id="paint3_radial_37_128" cx="0" cy="0" r="1" gradientUnits="userSpaceOnUse" gradientTransform="translate(-8.15683 -1.84834) scale(112.334)">
<stop stop-color="white"/>
<stop offset="0.31" stop-color="#FDFDFD"/>
<stop offset="0.451" stop-color="#F6F6F6"/>
<stop offset="0.557" stop-color="#E9E9E9"/>
<stop offset="0.646" stop-color="#D7D7D7"/>
<stop offset="0.724" stop-color="#BFBFBF"/>
<stop offset="0.794" stop-color="#A2A2A2"/>
<stop offset="0.859" stop-color="#808080"/>
<stop offset="0.92" stop-color="#575757"/>
<stop offset="0.975" stop-color="#2B2B2B"/>
<stop offset="1" stop-color="#141414"/>
</radialGradient>
<radialGradient id="paint4_radial_37_128" cx="0" cy="0" r="1" gradientUnits="userSpaceOnUse" gradientTransform="translate(-8.16184 -1.8483) scale(112.344 112.344)">
<stop stop-color="white"/>
<stop offset="0.31" stop-color="#FDFDFD"/>
<stop offset="0.451" stop-color="#F6F6F6"/>
<stop offset="0.557" stop-color="#E9E9E9"/>
<stop offset="0.646" stop-color="#D7D7D7"/>
<stop offset="0.724" stop-color="#BFBFBF"/>
<stop offset="0.794" stop-color="#A2A2A2"/>
<stop offset="0.859" stop-color="#808080"/>
<stop offset="0.92" stop-color="#575757"/>
<stop offset="0.975" stop-color="#2B2B2B"/>
<stop offset="1" stop-color="#141414"/>
</radialGradient>
<radialGradient id="paint5_radial_37_128" cx="0" cy="0" r="1" gradientUnits="userSpaceOnUse" gradientTransform="translate(-8.168 -1.8813) scale(112.43)">
<stop stop-color="white"/>
<stop offset="0.31" stop-color="#FDFDFD"/>
<stop offset="0.451" stop-color="#F6F6F6"/>
<stop offset="0.557" stop-color="#E9E9E9"/>
<stop offset="0.646" stop-color="#D7D7D7"/>
<stop offset="0.724" stop-color="#BFBFBF"/>
<stop offset="0.794" stop-color="#A2A2A2"/>
<stop offset="0.859" stop-color="#808080"/>
<stop offset="0.92" stop-color="#575757"/>
<stop offset="0.975" stop-color="#2B2B2B"/>
<stop offset="1" stop-color="#141414"/>
</radialGradient>
<radialGradient id="paint6_radial_37_128" cx="0" cy="0" r="1" gradientUnits="userSpaceOnUse" gradientTransform="translate(11.9622 13.7253) scale(30.3)">
<stop stop-color="#E6E6E6"/>
<stop offset="0.104" stop-color="#D6D6D6"/>
<stop offset="0.307" stop-color="#ADADAD"/>
<stop offset="0.588" stop-color="#6C6C6C"/>
<stop offset="0.933" stop-color="#121212"/>
<stop offset="1"/>
</radialGradient>
<radialGradient id="paint7_radial_37_128" cx="0" cy="0" r="1" gradientUnits="userSpaceOnUse" gradientTransform="translate(20.2496 17.8006) scale(44.0648)">
<stop stop-color="white"/>
<stop offset="0.344" stop-color="#FDFDFD"/>
<stop offset="0.481" stop-color="#F6F6F6"/>
<stop offset="0.582" stop-color="#EAEAEA"/>
<stop offset="0.665" stop-color="#D8D8D8"/>
<stop offset="0.737" stop-color="#C2C2C2"/>
<stop offset="0.802" stop-color="#A6A6A6"/>
<stop offset="0.86" stop-color="#848484"/>
<stop offset="0.913" stop-color="#5F5F5F"/>
<stop offset="0.949" stop-color="#404040"/>
<stop offset="0.957" stop-color="#404040"/>
<stop offset="1"/>
</radialGradient>
<radialGradient id="paint8_radial_37_128" cx="0" cy="0" r="1" gradientUnits="userSpaceOnUse" gradientTransform="translate(7.31158 1.09719) scale(78.0394)">
<stop offset="0.169" stop-color="white"/>
<stop offset="0.196" stop-color="#E0EFF7"/>
<stop offset="0.241" stop-color="#B2D9EC"/>
<stop offset="0.287" stop-color="#8BC5E2"/>
<stop offset="0.335" stop-color="#6BB5DA"/>
<stop offset="0.384" stop-color="#52A9D4"/>
<stop offset="0.436" stop-color="#41A0CF"/>
<stop offset="0.491" stop-color="#369BCD"/>
<stop offset="0.556" stop-color="#3399CC"/>
<stop offset="0.606" stop-color="#3396C8"/>
<stop offset="0.655" stop-color="#328EBC"/>
<stop offset="0.705" stop-color="#3180A8"/>
<stop offset="0.754" stop-color="#2F6D8C"/>
<stop offset="0.803" stop-color="#2D5468"/>
<stop offset="0.851" stop-color="#2A373D"/>
<stop offset="0.871" stop-color="#292929"/>
</radialGradient>
<radialGradient id="paint9_radial_37_128" cx="0" cy="0" r="1" gradientUnits="userSpaceOnUse" gradientTransform="translate(7.31156 1.09664) scale(78.0379)">
<stop offset="0.169" stop-color="white"/>
<stop offset="0.196" stop-color="#E0EFF7"/>
<stop offset="0.241" stop-color="#B2D9EC"/>
<stop offset="0.287" stop-color="#8BC5E2"/>
<stop offset="0.335" stop-color="#6BB5DA"/>
<stop offset="0.384" stop-color="#52A9D4"/>
<stop offset="0.436" stop-color="#41A0CF"/>
<stop offset="0.491" stop-color="#369BCD"/>
<stop offset="0.556" stop-color="#3399CC"/>
<stop offset="0.606" stop-color="#3396C8"/>
<stop offset="0.655" stop-color="#328EBC"/>
<stop offset="0.705" stop-color="#3180A8"/>
<stop offset="0.754" stop-color="#2F6D8C"/>
<stop offset="0.803" stop-color="#2D5468"/>
<stop offset="0.851" stop-color="#2A373D"/>
<stop offset="0.871" stop-color="#292929"/>
</radialGradient>
<radialGradient id="paint10_radial_37_128" cx="0" cy="0" r="1" gradientUnits="userSpaceOnUse" gradientTransform="translate(12.376 14.1069) scale(29.7193)">
<stop stop-color="#E6E6E6"/>
<stop offset="0.104" stop-color="#D6D6D6"/>
<stop offset="0.307" stop-color="#ADADAD"/>
<stop offset="0.588" stop-color="#6C6C6C"/>
<stop offset="0.933" stop-color="#121212"/>
<stop offset="1"/>
</radialGradient>
<linearGradient id="paint11_linear_37_128" x1="29.6585" y1="6.68645" x2="58.6407" y2="34.6928" gradientUnits="userSpaceOnUse">
<stop stop-color="#F0F4FF"/>
<stop offset="0.109" stop-color="#EBEFF9"/>
<stop offset="0.247" stop-color="#DCE0EA"/>
<stop offset="0.403" stop-color="#C4C7CF"/>
<stop offset="0.57" stop-color="#A2A4AB"/>
<stop offset="0.747" stop-color="#76777C"/>
<stop offset="0.929" stop-color="#414243"/>
<stop offset="1" stop-color="#2B2B2B"/>
</linearGradient>
<linearGradient id="paint12_linear_37_128" x1="6.13467" y1="30.3318" x2="35.1172" y2="58.3386" gradientUnits="userSpaceOnUse">
<stop stop-color="#F0F4FF"/>
<stop offset="0.109" stop-color="#EBEFF9"/>
<stop offset="0.247" stop-color="#DCE0EA"/>
<stop offset="0.403" stop-color="#C4C7CF"/>
<stop offset="0.57" stop-color="#A2A4AB"/>
<stop offset="0.747" stop-color="#76777C"/>
<stop offset="0.929" stop-color="#414243"/>
<stop offset="1" stop-color="#2B2B2B"/>
</linearGradient>
<linearGradient id="paint13_linear_37_128" x1="20.1557" y1="20.3451" x2="35.1843" y2="34.8677" gradientUnits="userSpaceOnUse">
<stop stop-color="#C2D7E8"/>
<stop offset="0.134" stop-color="#BACFE1"/>
<stop offset="0.343" stop-color="#A4BACD"/>
<stop offset="0.6" stop-color="#8098AC"/>
<stop offset="0.894" stop-color="#4E697F"/>
<stop offset="1" stop-color="#3A566D"/>
</linearGradient>
<linearGradient id="paint14_linear_37_128" x1="12.6291" y1="23.9038" x2="41.3199" y2="51.6285" gradientUnits="userSpaceOnUse">
<stop stop-color="#F0F4FF"/>
<stop offset="0.097" stop-color="#E8EBF6"/>
<stop offset="0.257" stop-color="#D1D4DD"/>
<stop offset="0.459" stop-color="#ABAEB5"/>
<stop offset="0.695" stop-color="#78797D"/>
<stop offset="0.958" stop-color="#363637"/>
<stop offset="1" stop-color="#2B2B2B"/>
</linearGradient>
<linearGradient id="paint15_linear_37_128" x1="33.776" y1="34.1881" x2="43.84" y2="43.9132" gradientUnits="userSpaceOnUse">
<stop stop-color="#D9DEF0"/>
<stop offset="0.123" stop-color="#D4DAEC"/>
<stop offset="0.263" stop-color="#C7CFE2"/>
<stop offset="0.411" stop-color="#B0BCD1"/>
<stop offset="0.566" stop-color="#90A1B8"/>
<stop offset="0.725" stop-color="#677F99"/>
<stop offset="0.885" stop-color="#355674"/>
<stop offset="0.972" stop-color="#173D5D"/>
</linearGradient>
<linearGradient id="paint16_linear_37_128" x1="23.481" y1="13.3813" x2="52.1408" y2="41.0761" gradientUnits="userSpaceOnUse">
<stop stop-color="#F0F4FF"/>
<stop offset="0.109" stop-color="#EBEFF9"/>
<stop offset="0.247" stop-color="#DCE0EA"/>
<stop offset="0.403" stop-color="#C4C7CF"/>
<stop offset="0.57" stop-color="#A2A4AB"/>
<stop offset="0.747" stop-color="#76777C"/>
<stop offset="0.929" stop-color="#414243"/>
<stop offset="1" stop-color="#2B2B2B"/>
</linearGradient>
<clipPath id="clip0_37_128">
<rect width="65.812" height="65.812" fill="white" transform="translate(0.649475 0.735474)"/>
</clipPath>
</defs>
</svg>
