<svg width="66" height="67" viewBox="0 0 66 67" fill="none" xmlns="http://www.w3.org/2000/svg">
<g clip-path="url(#clip0_37_120)">
<path d="M4.86131 55.4248C4.83333 55.4216 4.73852 55.4118 4.6506 55.4029C3.84807 55.3223 2.99139 54.9942 2.31796 54.5093C1.30829 53.7824 0.596785 52.724 0.30001 51.5074C0.1423 50.8609 0.110956 50.1367 0.211819 49.4703C0.482263 47.6839 1.66278 46.1537 3.3004 45.4668C3.7091 45.2954 4.1147 45.187 4.59248 45.1216C4.85733 45.0853 5.50233 45.0851 5.76952 45.1212C6.33614 45.1979 6.81641 45.3408 7.30985 45.5795C7.8528 45.8422 8.22856 46.1127 8.68338 46.5683C9.08099 46.9666 9.32651 47.2981 9.61116 47.821L9.67172 47.9323L9.45712 48.091C9.16149 48.3097 8.46804 48.8045 8.24219 48.9579L8.0556 49.0846L7.97886 48.9178C7.88397 48.7116 7.81642 48.5893 7.70702 48.426C7.26992 47.7732 6.57289 47.3069 5.81312 47.1591C5.41109 47.0809 4.91615 47.0896 4.51982 47.1819C4.10364 47.2788 3.6517 47.4961 3.30645 47.7654C3.16728 47.874 2.91115 48.128 2.79846 48.2692C2.19039 49.0312 1.96642 50.0019 2.17496 50.9715C2.24716 51.3072 2.43405 51.7457 2.62902 52.037C3.14503 52.808 3.93598 53.3019 4.83187 53.4126C4.99024 53.4322 5.37175 53.4322 5.53013 53.4126C6.32353 53.3146 7.05663 52.9024 7.55757 52.2726C7.70509 52.0872 7.8079 51.9266 7.92516 51.6986C7.97654 51.5987 8.02287 51.517 8.02811 51.517C8.03336 51.517 8.39863 51.7748 8.83984 52.0898L9.64203 52.6627L9.56074 52.8164C9.39205 53.1355 9.10184 53.5365 8.83154 53.8241C8.37104 54.3141 7.9225 54.6471 7.3389 54.9322C6.83485 55.1785 6.30075 55.3355 5.73318 55.4044C5.60593 55.4199 4.95178 55.4352 4.86131 55.4248ZM11.7201 50.2092V45.1886H13.6673V48.7924H18.7533V45.1886H20.7006V55.2298H18.7533V50.8122H13.6673V55.2298H11.7201V50.2092ZM22.6678 54.3397C22.8849 53.8502 23.8863 51.591 24.8931 49.3191L26.7238 45.1886L28.0898 45.1887L29.4557 45.1889L31.6687 50.1476C32.8858 52.8749 33.8942 55.1341 33.9095 55.168L33.9372 55.2298H31.6057L31.1555 54.2345L30.7054 53.2391L28.0999 53.2427L25.4944 53.2463L25.0493 54.238L24.6042 55.2298H22.2732L22.6678 54.3397ZM29.8818 51.2134C29.8736 51.178 28.1046 47.2238 28.0971 47.2239C28.0916 47.224 26.4116 51.1449 26.3848 51.2201C26.3818 51.2284 27.0536 51.2337 28.1332 51.2337C29.6246 51.2337 29.8858 51.2306 29.8818 51.2134ZM35.5081 50.2092V45.1886L36.8777 45.1889L38.2473 45.1892L40.3906 48.1996L42.534 51.21L42.5377 48.1993L42.5413 45.1886H44.503V55.2301L43.7159 55.2263L42.9288 55.2225L40.2102 51.4485C38.715 49.3729 37.4867 47.6743 37.4807 47.674C37.4747 47.6737 37.4698 49.3736 37.4698 51.4516V55.2298H35.5081V50.2092ZM48.0487 50.2092V45.1886H55.0674V47.2085H50.0104V49.2138H54.6896V51.2337H50.0104V53.239H55.7939V55.2298H48.0487V50.2092ZM58.5404 50.2092V45.1886H60.5021V53.239H65.9659V55.2298H58.5404V50.2092ZM24.9224 42.6349C22.8265 42.5379 20.4925 41.9015 18.6109 40.9139C17.1664 40.1557 16.0215 39.3073 14.8221 38.1061C13.8827 37.1653 13.1897 36.2987 12.6031 35.3312L12.3462 34.9077L12.7106 34.7145C13.4205 34.3379 16.6568 32.6808 16.6822 32.6808C16.6964 32.6808 16.8301 32.8628 16.9793 33.0852C18.6658 35.5989 21.3043 37.2342 24.3919 37.6792C24.9317 37.757 26.5548 37.7446 27.1426 37.6582C27.7967 37.562 28.5812 37.3837 29.0794 37.2179C29.1119 37.2071 29.0499 37.1065 28.9074 36.9384C27.8037 35.6375 26.7976 33.8519 26.2316 32.1896C25.2078 29.1827 25.1349 25.9549 26.0224 22.9223C26.5735 21.039 27.5219 19.2111 28.7231 17.7173C28.902 17.4947 29.0484 17.2984 29.0484 17.2809C29.0484 17.2217 28.1108 16.9721 27.4963 16.8678C26.5468 16.7066 25.0605 16.6867 24.2024 16.8235C22.7586 17.0538 21.2932 17.5945 20.1481 18.3195C18.872 19.1274 17.8078 20.1657 16.9586 21.4314L16.5837 21.9903L16.1064 21.7397C15.8439 21.6019 14.8687 21.0966 13.9394 20.6168C13.0101 20.1369 12.2468 19.7418 12.2433 19.7387C12.2285 19.7257 12.8103 18.8003 13.0498 18.456C13.7769 17.4105 15.0681 16.0259 16.022 15.2686C18.5165 13.2886 21.2896 12.1734 24.4116 11.8949C24.9907 11.8433 26.4268 11.8428 26.9854 11.8941C28.9675 12.0761 30.6665 12.5567 32.4219 13.4318L33.2608 13.85L33.5418 13.6901C33.9956 13.4319 34.8019 13.0593 35.4143 12.8248C37.1324 12.1669 38.8628 11.8538 40.7746 11.8547C42.1096 11.8554 43.2234 11.9866 44.4324 12.2856C47.1639 12.961 49.4933 14.2564 51.5004 16.2161C52.5884 17.2785 53.4412 18.3633 54.1297 19.5609L54.234 19.7424L52.5358 20.6184C51.6018 21.1003 50.6248 21.6061 50.3647 21.7426L49.8916 21.9906L49.5341 21.4512C47.7699 18.79 44.8842 17.0575 41.7256 16.7631C40.7905 16.676 39.402 16.7562 38.5579 16.9462C38.1235 17.0439 37.4184 17.2454 37.4185 17.2717C37.4187 17.2855 37.534 17.4382 37.6749 17.6111C39.485 19.8321 40.6152 22.5394 40.9804 25.5291C41.0675 26.2427 41.0792 28.0645 41.0011 28.7709C40.6712 31.7542 39.5432 34.5072 37.7427 36.7236C37.3345 37.226 37.3519 37.1912 37.4828 37.2418C37.5446 37.2657 37.8339 37.3457 38.1257 37.4197C39.6086 37.7954 41.2048 37.8485 42.7036 37.5719C45.4296 37.0689 47.8847 35.4567 49.4638 33.1327C49.6106 32.9166 49.7432 32.7253 49.7585 32.7075C49.7737 32.6898 50.1377 32.8515 50.5673 33.0669C51.4185 33.4935 54.0845 34.8732 54.1131 34.9017C54.1607 34.9494 53.3111 36.2106 52.79 36.8657C52.2967 37.486 51.0036 38.7775 50.3858 39.2671C48.1532 41.0364 45.6478 42.1182 42.8881 42.5044C39.7195 42.9479 36.3638 42.354 33.6335 40.8665L33.2476 40.6563L32.769 40.9095C30.3976 42.1642 27.6775 42.7623 24.9224 42.6349ZM33.775 33.9186C35.0965 32.2828 35.921 30.2985 36.1242 28.2651C36.1924 27.5827 36.1519 26.1925 36.0457 25.5711C35.7534 23.8611 35.128 22.3954 34.1191 21.0561C33.9292 20.8039 33.6525 20.4667 33.5044 20.3069L33.235 20.0162L32.9851 20.2872C32.6556 20.6444 32.1066 21.3732 31.8299 21.8207C30.4248 24.0927 29.9661 26.8839 30.5611 29.5405C30.9355 31.2122 31.7964 32.8963 32.9565 34.2265L33.2237 34.5329L33.3406 34.4222C33.4049 34.3614 33.6004 34.1347 33.775 33.9186Z" fill="black"/>
</g>
<defs>
<clipPath id="clip0_37_120">
<rect width="65.812" height="65.812" fill="white" transform="translate(0.153778 0.735474)"/>
</clipPath>
</defs>
</svg>
